<svg width="24" height="25" viewBox="0 0 24 25" fill="none" xmlns="http://www.w3.org/2000/svg">
<g clip-path="url(#clip0_857_270)">
<path d="M4.98788 11.9268C4.98785 11.7928 5.0143 11.6601 5.0657 11.5363C5.1171 11.4125 5.19244 11.3001 5.28739 11.2056C5.38235 11.111 5.49504 11.0362 5.619 10.9853C5.74296 10.9344 5.87574 10.9086 6.00972 10.9092L7.70383 10.9148C7.97395 10.9148 8.23301 11.0221 8.42402 11.2132C8.61502 11.4042 8.72232 11.6634 8.72232 11.9336V18.3419C8.91316 18.2854 9.15792 18.2251 9.42605 18.1621C9.61222 18.1183 9.77813 18.0129 9.89689 17.8629C10.0156 17.7129 10.0803 17.5272 10.0803 17.3359V9.38692C10.0803 9.2531 10.1067 9.12059 10.1579 8.99695C10.209 8.87332 10.2841 8.76097 10.3786 8.66634C10.4732 8.57171 10.5855 8.49664 10.7091 8.44542C10.8327 8.3942 10.9651 8.36783 11.0989 8.36782H12.7964C13.0665 8.36786 13.3255 8.47522 13.5165 8.66628C13.7075 8.85735 13.8148 9.11647 13.8149 9.38667V16.7646C13.8149 16.7646 14.2397 16.5925 14.6538 16.4177C14.8076 16.3527 14.9388 16.2437 15.0311 16.1045C15.1234 15.9654 15.1727 15.8021 15.1728 15.6351V6.83933C15.1728 6.70554 15.1991 6.57305 15.2503 6.44944C15.3015 6.32583 15.3765 6.21351 15.4711 6.1189C15.5656 6.02429 15.6779 5.94924 15.8015 5.89804C15.925 5.84683 16.0575 5.82048 16.1912 5.82048H17.8887C18.1588 5.82048 18.4179 5.92782 18.6089 6.11889C18.7999 6.30996 18.9072 6.56911 18.9073 6.83933V14.0821C20.3789 13.0152 21.8704 11.7319 23.054 10.1889C23.2258 9.96489 23.3394 9.70187 23.3848 9.42328C23.4302 9.14468 23.4059 8.85918 23.3142 8.59223C22.5134 6.25748 21.0112 4.22715 19.013 2.77888C17.0149 1.3306 14.6183 0.535069 12.1511 0.501057C5.4979 0.411651 -0.000595993 5.84459 5.75687e-05 12.5009C-0.00647503 14.6072 0.543066 16.6779 1.59311 18.5036C1.73792 18.7533 1.95096 18.9565 2.2072 19.0893C2.46345 19.2221 2.75225 19.2789 3.03969 19.2532C3.36083 19.2249 3.76065 19.185 4.23595 19.1292C4.44283 19.1056 4.63383 19.0068 4.77256 18.8515C4.91129 18.6961 4.98807 18.4952 4.98828 18.2869L4.98788 11.9268Z" fill="white"/>
<path d="M4.95077 22.2043C6.74005 23.5064 8.85454 24.288 11.0603 24.4626C13.2661 24.6372 15.4771 24.1979 17.4488 23.1935C19.4205 22.1891 21.0761 20.6586 22.2322 18.7714C23.3884 16.8841 24.0001 14.7137 23.9998 12.5003C23.9998 12.224 23.987 11.9508 23.9685 11.679C19.5862 18.217 11.4948 21.2735 4.95068 22.2045" fill="white"/>
</g>
<defs>
<clipPath id="clip0_857_270">
<rect width="24" height="24" fill="white" transform="translate(0 0.5)"/>
</clipPath>
</defs>
</svg>
