<svg width="16" height="16" viewBox="0 0 16 16" fill="none" xmlns="http://www.w3.org/2000/svg">
<path d="M8 1.00003C4.13438 1.00003 1 4.13441 1 8.00003C1 11.8657 4.13438 15 8 15C11.8656 15 15 11.8657 15 8.00003C15 4.13441 11.8656 1.00003 8 1.00003ZM8 13.8125C4.79063 13.8125 2.1875 11.2094 2.1875 8.00003C2.1875 4.79066 4.79063 2.18753 8 2.18753C11.2094 2.18753 13.8125 4.79066 13.8125 8.00003C13.8125 11.2094 11.2094 13.8125 8 13.8125Z" fill="#2F8AF5"/>
<path d="M7.25 5.25003C7.25 5.44894 7.32902 5.63971 7.46967 5.78036C7.61032 5.92101 7.80109 6.00003 8 6.00003C8.19891 6.00003 8.38968 5.92101 8.53033 5.78036C8.67098 5.63971 8.75 5.44894 8.75 5.25003C8.75 5.05112 8.67098 4.86035 8.53033 4.7197C8.38968 4.57905 8.19891 4.50003 8 4.50003C7.80109 4.50003 7.61032 4.57905 7.46967 4.7197C7.32902 4.86035 7.25 5.05112 7.25 5.25003ZM8.375 7.00003H7.625C7.55625 7.00003 7.5 7.05628 7.5 7.12503V11.375C7.5 11.4438 7.55625 11.5 7.625 11.5H8.375C8.44375 11.5 8.5 11.4438 8.5 11.375V7.12503C8.5 7.05628 8.44375 7.00003 8.375 7.00003Z" fill="#2F8AF5"/>
</svg>
