<svg width="20" height="20" viewBox="0 0 20 20" fill="none" xmlns="http://www.w3.org/2000/svg">
<path d="M13 5.5C13.0001 5.10204 13.1583 4.72044 13.4398 4.43913C13.7213 4.15783 14.103 3.99987 14.501 4C14.899 4.00013 15.2806 4.15835 15.5619 4.43984C15.8432 4.72133 16.0011 5.10304 16.001 5.501C16.0009 5.89896 15.8427 6.28056 15.5612 6.56187C15.2797 6.84317 14.898 7.00113 14.5 7.001C14.102 7.00087 13.7204 6.84265 13.4391 6.56116C13.1578 6.27967 12.9999 5.89796 13 5.5ZM2 18H16C16 18.5304 15.7893 19.0391 15.4142 19.4142C15.0391 19.7893 14.5304 20 14 20H2C0.9 20 0 19.1 0 18V6C0 5.46957 0.210714 4.96086 0.585786 4.58579C0.960859 4.21071 1.46957 4 2 4V18ZM20 2V14C20 14.5304 19.7893 15.0391 19.4142 15.4142C19.0391 15.7893 18.5304 16 18 16H6C5.46957 16 4.96086 15.7893 4.58579 15.4142C4.21071 15.0391 4 14.5304 4 14V2C4 1.46957 4.21071 0.960859 4.58579 0.585786C4.96086 0.210714 5.46957 0 6 0H18C18.5304 0 19.0391 0.210714 19.4142 0.585786C19.7893 0.960859 20 1.46957 20 2ZM6 2V8.333L9 5L13.855 10.395L14.511 9.664C14.6986 9.45515 14.928 9.28813 15.1844 9.17379C15.4407 9.05945 15.7183 9.00036 15.999 9.00036C16.2797 9.00036 16.5573 9.05945 16.8136 9.17379C17.07 9.28813 17.2994 9.45515 17.487 9.664L18 10.234V2H6Z" fill="white"/>
</svg>
