<svg width="24" height="22" viewBox="0 0 24 22" fill="none" xmlns="http://www.w3.org/2000/svg">
<g filter="url(#filter0_d_220_703)">
<path d="M10.2 5.80002V0.400024H4.8C4.32261 0.400024 3.86477 0.589667 3.52721 0.927232C3.18964 1.2648 3 1.72263 3 2.20002V17.8C3 18.2774 3.18964 18.7353 3.52721 19.0728C3.86477 19.4104 4.32261 19.6 4.8 19.6H10.5084C9.66204 18.5773 9.14536 17.3222 9.0264 16H8.4C8.24087 16 8.08826 15.9368 7.97574 15.8243C7.86321 15.7118 7.8 15.5592 7.8 15.4C7.8 15.2409 7.86321 15.0883 7.97574 14.9758C8.08826 14.8632 8.24087 14.8 8.4 14.8H9.0264C9.06304 14.394 9.13736 13.9923 9.2484 13.6H8.4C8.24087 13.6 8.08826 13.5368 7.97574 13.4243C7.86321 13.3118 7.8 13.1592 7.8 13C7.8 12.8409 7.86321 12.6883 7.97574 12.5758C8.08826 12.4632 8.24087 12.4 8.4 12.4H9.72C9.9396 11.9704 10.2048 11.5684 10.5084 11.2H8.4C8.24087 11.2 8.08826 11.1368 7.97574 11.0243C7.86321 10.9118 7.8 10.7592 7.8 10.6C7.8 10.4409 7.86321 10.2883 7.97574 10.1758C8.08826 10.0632 8.24087 10 8.4 10H11.8044C12.8784 9.24403 14.1876 8.80002 15.6 8.80002C16.2086 8.79944 16.8143 8.88303 17.4 9.04842V7.60002H12C11.5226 7.60002 11.0648 7.41038 10.7272 7.07282C10.3896 6.73525 10.2 6.27741 10.2 5.80002ZM5.4 10.6C5.4 10.4409 5.46321 10.2883 5.57574 10.1758C5.68826 10.0632 5.84087 10 6 10C6.15913 10 6.31174 10.0632 6.42426 10.1758C6.53679 10.2883 6.6 10.4409 6.6 10.6C6.6 10.7592 6.53679 10.9118 6.42426 11.0243C6.31174 11.1368 6.15913 11.2 6 11.2C5.84087 11.2 5.68826 11.1368 5.57574 11.0243C5.46321 10.9118 5.4 10.7592 5.4 10.6ZM5.4 13C5.4 12.8409 5.46321 12.6883 5.57574 12.5758C5.68826 12.4632 5.84087 12.4 6 12.4C6.15913 12.4 6.31174 12.4632 6.42426 12.5758C6.53679 12.6883 6.6 12.8409 6.6 13C6.6 13.1592 6.53679 13.3118 6.42426 13.4243C6.31174 13.5368 6.15913 13.6 6 13.6C5.84087 13.6 5.68826 13.5368 5.57574 13.4243C5.46321 13.3118 5.4 13.1592 5.4 13ZM6 14.8C6.15913 14.8 6.31174 14.8632 6.42426 14.9758C6.53679 15.0883 6.6 15.2409 6.6 15.4C6.6 15.5592 6.53679 15.7118 6.42426 15.8243C6.31174 15.9368 6.15913 16 6 16C5.84087 16 5.68826 15.9368 5.57574 15.8243C5.46321 15.7118 5.4 15.5592 5.4 15.4C5.4 15.2409 5.46321 15.0883 5.57574 14.9758C5.68826 14.8632 5.84087 14.8 6 14.8Z" fill="white"/>
<path d="M11.4002 5.80001V0.700012L17.1002 6.40001H12.0002C11.8411 6.40001 11.6885 6.3368 11.5759 6.22428C11.4634 6.11175 11.4002 5.95914 11.4002 5.80001ZM21.0002 15.4C21.0002 16.8322 20.4313 18.2057 19.4186 19.2184C18.4059 20.2311 17.0324 20.8 15.6002 20.8C14.168 20.8 12.7945 20.2311 11.7818 19.2184C10.7691 18.2057 10.2002 16.8322 10.2002 15.4C10.2002 13.9678 10.7691 12.5943 11.7818 11.5816C12.7945 10.5689 14.168 10 15.6002 10C17.0324 10 18.4059 10.5689 19.4186 11.5816C20.4313 12.5943 21.0002 13.9678 21.0002 15.4ZM16.2002 11.8C16.2002 11.6409 16.137 11.4883 16.0245 11.3757C15.9119 11.2632 15.7593 11.2 15.6002 11.2C15.4411 11.2 15.2885 11.2632 15.1759 11.3757C15.0634 11.4883 15.0002 11.6409 15.0002 11.8V15.4C15.0002 15.5591 15.0634 15.7118 15.1759 15.8243C15.2885 15.9368 15.4411 16 15.6002 16H18.0002C18.1593 16 18.3119 15.9368 18.4245 15.8243C18.537 15.7118 18.6002 15.5591 18.6002 15.4C18.6002 15.2409 18.537 15.0883 18.4245 14.9757C18.3119 14.8632 18.1593 14.8 18.0002 14.8H16.2002V11.8Z" fill="white"/>
</g>
<defs>
<filter id="filter0_d_220_703" x="-1" y="0.400024" width="26" height="28.4" filterUnits="userSpaceOnUse" colorInterpolationFilters="sRGB">
<feFlood floodOpacity="0" result="BackgroundImageFix"/>
<feColorMatrix in="SourceAlpha" type="matrix" values="0 0 0 0 0 0 0 0 0 0 0 0 0 0 0 0 0 0 127 0" result="hardAlpha"/>
<feOffset dy="4"/>
<feGaussianBlur stdDeviation="2"/>
<feComposite in2="hardAlpha" operator="out"/>
<feColorMatrix type="matrix" values="0 0 0 0 0 0 0 0 0 0 0 0 0 0 0 0 0 0 0.25 0"/>
<feBlend mode="normal" in2="BackgroundImageFix" result="effect1_dropShadow_220_703"/>
<feBlend mode="normal" in="SourceGraphic" in2="effect1_dropShadow_220_703" result="shape"/>
</filter>
</defs>
</svg>
