<svg class="sc-28fa28fe-5 jYhuOw" width="24" height="24" viewBox="0 0 24 24" fill="none" xmlns="http://www.w3.org/2000/svg"><path d="M12.5905 19.9997C12.5514 19.6788 12.4477 19.3729 12.3729 19.0604C12.2627 18.6002 12.1422 18.1422 12.0332 17.6816C12.011 17.5877 11.9759 17.5564 11.8782 17.5577C11.4562 17.5636 11.0339 17.557 10.6118 17.563C10.501 17.5645 10.4518 17.5386 10.4233 17.4199C10.2461 16.6876 10.0592 15.9575 9.8717 15.228C9.84728 15.1329 9.85918 15.069 9.934 14.9963C10.2853 14.6548 10.6272 14.3038 10.9769 13.9607C11.0489 13.8902 11.0689 13.8276 11.0436 13.7281C10.7549 12.5884 10.4694 11.4482 10.1889 10.3064C10.1626 10.1996 10.124 10.1658 10.0138 10.1665C9.28937 10.1718 8.5649 10.1674 7.84043 10.1724C7.73054 10.173 7.67763 10.148 7.64914 10.0325C7.26311 8.46862 6.87145 6.90572 6.4801 5.34251C6.46351 5.27582 6.44284 5.22072 6.50608 5.15936C6.88648 4.78836 7.26249 4.41266 7.63975 4.03853C7.65885 4.01975 7.6792 4.00472 7.708 4.00879C7.70894 4.01912 7.708 4.02976 7.71051 4.03978C8.10561 5.62741 8.50229 7.21473 8.89426 8.8033C8.92181 8.91539 8.98662 8.92008 9.07648 8.92008C9.79625 8.91914 10.5157 8.92353 11.2355 8.91852C11.351 8.91789 11.3977 8.95295 11.4243 9.06441C11.5363 9.53341 11.6594 9.9999 11.7755 10.4676C11.9543 11.1883 12.1296 11.91 12.309 12.6304C12.4005 12.9973 12.4931 13.3639 12.5955 13.7277C12.6287 13.8455 12.5999 13.8702 12.4856 13.8686C12.0686 13.8636 11.6512 13.8699 11.2342 13.8646C11.1284 13.8633 11.0871 13.8758 11.1184 13.9976C11.305 14.7265 11.4866 15.4566 11.6644 16.1879C11.6873 16.2825 11.7261 16.3119 11.8216 16.311C12.2283 16.3066 12.6353 16.3182 13.0416 16.3063C13.1954 16.3019 13.2461 16.3592 13.2799 16.4982C13.4546 17.2148 13.6409 17.9287 13.8184 18.6447C13.8441 18.7483 13.8866 18.7837 13.9972 18.7821C14.4978 18.7759 14.9984 18.7802 15.499 18.7809C15.6984 18.7809 15.7016 18.7802 15.6493 18.588C15.3309 17.4199 15.072 16.2368 14.7558 15.068C14.5162 14.1827 14.3159 13.2863 14.0945 12.3959C13.758 11.044 13.4183 9.69308 13.0792 8.34182C13.0642 8.28171 13.0279 8.21502 13.0773 8.16368C13.2279 8.00808 13.3854 7.85905 13.5473 7.70063C13.5651 7.75574 13.5801 7.79456 13.5902 7.83463C13.9242 9.17086 14.258 10.5074 14.5911 11.8439C15.1556 14.1085 15.7204 16.373 16.2823 18.6378C16.3093 18.7461 16.3534 18.7881 16.4714 18.7852C16.8258 18.7765 17.1806 18.7824 17.5353 18.7827C17.5315 18.8485 17.4739 18.8757 17.4357 18.9146C17.1148 19.238 16.7917 19.5592 16.4708 19.8826C16.4357 19.918 16.385 19.9427 16.3769 20H12.5899L12.5905 19.9997Z" fill="#FA5408"></path><path d="M17.5358 18.7824C17.1811 18.7824 16.8264 18.7761 16.472 18.7849C16.354 18.7877 16.3098 18.7458 16.2829 18.6374C15.7209 16.3723 15.1561 14.1078 14.5916 11.8436C14.2585 10.5071 13.9248 9.17052 13.5907 7.8343C13.5807 7.79422 13.5657 7.7554 13.5478 7.7003C13.386 7.85872 13.2285 8.00774 13.0779 8.16334C13.0281 8.21469 13.0644 8.28137 13.0798 8.34149C13.4188 9.69274 13.7585 11.0437 14.0951 12.3956C14.3167 13.286 14.5168 14.182 14.7563 15.0677C15.0725 16.2367 15.3314 17.4196 15.6498 18.5877C15.7021 18.7796 15.699 18.7808 15.4996 18.7805C14.9989 18.7799 14.4983 18.7755 13.9977 18.7818C13.8872 18.7833 13.8446 18.748 13.8189 18.6443C13.6417 17.9283 13.4555 17.2145 13.2804 16.4979C13.2466 16.3592 13.1959 16.3016 13.0422 16.3059C12.6358 16.3178 12.2288 16.3059 11.8221 16.3106C11.7266 16.3116 11.6878 16.2818 11.6649 16.1876C11.4871 15.4566 11.3055 14.7264 11.1189 13.9973C11.0876 13.8755 11.129 13.863 11.2348 13.8642C11.6518 13.8695 12.0691 13.8633 12.4862 13.8683C12.6004 13.8695 12.6289 13.8451 12.596 13.7274C12.4937 13.3636 12.401 12.997 12.3096 12.6301C12.1302 11.9097 11.9549 11.188 11.7761 10.4673C11.6599 9.99925 11.5369 9.53276 11.4248 9.06408C11.3982 8.95262 11.3512 8.91755 11.236 8.91818C10.5163 8.92288 9.7968 8.91849 9.07702 8.91975C8.98686 8.91975 8.92236 8.91505 8.89481 8.80297C8.50252 7.21471 8.10585 5.62739 7.71074 4.03976C7.70824 4.02974 7.70886 4.0191 7.70824 4.00877C7.76553 4.00657 7.82251 4.0025 7.8798 4.0025C10.6315 4.00282 13.3834 4.00501 16.1351 4C16.2866 4 16.3386 4.04821 16.3731 4.18722C16.7494 5.71693 17.1316 7.24539 17.5133 8.77385C17.5258 8.82457 17.5437 8.87341 17.5343 8.92663C17.0456 8.92601 16.5571 8.92507 16.0684 8.92444C15.7826 8.92413 15.4967 8.92382 15.2109 8.92288C15.1455 8.92288 15.0731 8.91975 15.1013 9.01868C15.2106 9.40095 15.2748 9.79543 15.4075 10.1718C15.5907 10.9131 15.7719 11.6551 15.957 12.3962C16.4779 14.4841 17.0005 16.5714 17.5214 18.6591C17.5315 18.6988 17.5315 18.7411 17.5358 18.7821V18.7824ZM12.4818 5.84811V5.84905C12.1274 5.84905 11.773 5.84905 11.4186 5.84905C10.788 5.84905 10.1575 5.85124 9.52692 5.84843C9.41421 5.8478 9.37226 5.87629 9.41359 5.9937C9.44615 6.08637 9.4834 6.18468 9.48246 6.28016C9.4809 6.46582 9.57795 6.48304 9.73074 6.48273C11.4608 6.47834 13.1909 6.48179 14.921 6.47615C15.0547 6.47584 15.1016 6.51967 15.1264 6.64083C15.1689 6.84935 15.2209 7.05629 15.2785 7.26105C15.3189 7.40475 15.2989 7.60982 15.4116 7.6765C15.5284 7.74569 15.7146 7.69341 15.8699 7.70405C16.0014 7.71313 16.0127 7.66586 15.982 7.54908C15.8474 7.03751 15.7193 6.52405 15.5969 6.00966C15.5681 5.88913 15.5227 5.84342 15.39 5.84436C14.4207 5.85093 13.4514 5.8478 12.4821 5.8478L12.4818 5.84811Z" fill="#FFDD47"></path><path d="M15.4075 10.172C15.2751 9.79572 15.2109 9.40155 15.1013 9.01897C15.0728 8.92003 15.1452 8.92285 15.2109 8.92317C15.4968 8.92379 15.7826 8.92411 16.0684 8.92473C16.5572 8.92536 17.0456 8.9263 17.5343 8.92692C17.5271 8.98516 17.477 9.01145 17.4416 9.04715C17.1047 9.38652 16.7641 9.72246 16.4307 10.0647C16.3549 10.1423 16.2785 10.172 16.1714 10.1695C15.9169 10.1636 15.6624 10.1705 15.4075 10.172Z" fill="#FA5408"></path><path d="M12.4818 5.84812C13.4511 5.84812 14.4204 5.85125 15.3897 5.84468C15.5224 5.84374 15.5678 5.88976 15.5966 6.00999C15.7193 6.52438 15.8471 7.03783 15.9817 7.5494C16.0124 7.66618 16.0011 7.71314 15.8696 7.70438C15.7143 7.69373 15.5284 7.74602 15.4113 7.67683C15.2986 7.60983 15.3186 7.40476 15.2782 7.26137C15.2209 7.0563 15.1686 6.84967 15.126 6.64116C15.1013 6.51999 15.0543 6.47616 14.9207 6.47648C13.1906 6.48211 11.4605 6.47867 9.73042 6.48305C9.57763 6.48336 9.48089 6.46614 9.48215 6.28049C9.48308 6.185 9.44583 6.08669 9.41327 5.99402C9.37194 5.87661 9.41389 5.84812 9.5266 5.84875C10.1571 5.85157 10.7877 5.84969 11.4182 5.84938C11.7726 5.84938 12.127 5.84938 12.4815 5.84938V5.84844L12.4818 5.84812Z" fill="#FA5408"></path></svg>