<svg class="sc-ac9cac12-4 cqTouq" id="account_balance_wallet_black_24dp_2_" data-name="account_balance_wallet_black_24dp (2)" xmlns="http://www.w3.org/2000/svg" width="24" height="24" viewBox="0 0 24 24"><path id="Trazado_84729" data-name="Trazado 84729" d="M0,0H24V24H0Z" fill="none"></path><path id="Trazado_84730" data-name="Trazado 84730" d="M21,18v1a2.006,2.006,0,0,1-2,2H5a2,2,0,0,1-2-2V5A2,2,0,0,1,5,3H19a2.006,2.006,0,0,1,2,2V6H12a2,2,0,0,0-2,2v8a2,2,0,0,0,2,2Zm-9-2H22V8H12Zm4-2.5A1.5,1.5,0,1,1,17.5,12,1.5,1.5,0,0,1,16,13.5Z" fill="#fff"></path></svg>