<svg xmlns="http://www.w3.org/2000/svg" width="465.885" height="465.036" viewBox="0 0 465.885 465.036">
    <g id="eNP8Hf.tif" transform="translate(-300.041 -300.261)">
        <g id="Group_41630" data-name="Group 41630" transform="translate(300.042 300.261)">
            <path id="Path_87759" data-name="Path 87759" d="M533.449,300.4c124.719-4.348,232.923,106.47,232.476,232.881-.435,124.233-107.406,232.669-234.353,232.01-123.764-.64-232.438-107.414-231.525-234.816C300.934,406.974,407.388,295.721,533.449,300.4Zm-.316,47.738c-103.925,4.352-183.377,79.8-183.366,184.263s79.5,183.377,183.466,183.154c103.17-.224,182.452-77.74,182.911-182.814C716.6,429.637,638.446,352.9,533.133,348.143Z" transform="translate(-300.042 -300.262)" fill="#fff"></path>
            <path id="Path_87760" data-name="Path 87760" d="M354.229,426.641c0-20.786.188-41.576-.1-62.362-.1-7.435,2.725-10.4,10.159-10.138,10.543.36,21.106.208,31.658.06,5.8-.08,9.008,1.919,9,8.26q-.12,65.243-.016,130.484c.008,5.62-2.508,8.168-8.124,8.124-10.872-.092-21.755-.276-32.619.1-7.539.261-10.143-2.912-10.051-10.243C354.4,469.5,354.229,448.072,354.229,426.641Z" transform="translate(-146.635 -150.09)" fill="#fff"></path>
            <path id="Path_87761" data-name="Path 87761" d="M380.291,330.158c28.208.36,24.4-3.582,24.587,24.2.18,26.543.041,26.687-26.074,26.5-28.221-.2-24.4,3.621-24.587-24.16C354.033,330.158,354.178,330.158,380.291,330.158Z" transform="translate(-146.602 -215.501)" fill="#fff"></path>
        </g>
    </g>
</svg>