<svg xmlns="http://www.w3.org/2000/svg" width="175.748" height="96.884" viewBox="0 0 175.748 96.884">
  <g id="Boys_and_Girls_club_logo" data-name="Boys and Girls club logo" transform="translate(0 -45.66)">
    <path id="Path_85341" data-name="Path 85341" d="M143.078,74.009l-28.086,28.545h.066a4.73,4.73,0,0,1-1.58.922,5.834,5.834,0,0,1-4.537,0,5.185,5.185,0,0,1-1.514-.922L76.317,71.115l1.315-1.25-.065-.066c.46-.395,2.039-1.973,3.814-1.907a3.812,3.812,0,0,1,2.171.526v.065L102.1,87.23l.066-.066a8.057,8.057,0,0,0,5.789,2.434,10.385,10.385,0,0,0,6.773-3.289l20.457-20.456L118.214,48.028c-1.184-1.447-3.156-2.236-5.854-2.368h-.938a10.66,10.66,0,0,0-5.246,1.381,8.477,8.477,0,0,0-4.8-1.381h-.934a10.877,10.877,0,0,0-5.25,1.381,8.411,8.411,0,0,0-4.735-1.381H89.6a11.113,11.113,0,0,0-5.594,1.513,8.362,8.362,0,0,0-5-1.513H77.484c-2.7.132-4.67.921-5.854,2.368L43.61,76.508l2.763,2.828L74.458,50.79a5.177,5.177,0,0,1,1.513-.921,5.825,5.825,0,0,1,4.538,0,4.743,4.743,0,0,1,1.579.921h-.066l31.111,31.44-1.316,1.25.066.065c-.461.395-2.039,1.973-3.814,1.907-2.105.132-3.354-1.513-3.814-1.907V83.48L88.025,67.037a8.194,8.194,0,0,0-6.512-3.289A10.218,10.218,0,0,0,74.8,67.037L54.283,87.493l16.97,17.89c1.184,1.381,3.157,2.172,5.854,2.3a11.265,11.265,0,0,0,6.183-1.381,8.493,8.493,0,0,0,4.8,1.381,11.526,11.526,0,0,0,6.183-1.381,8.428,8.428,0,0,0,4.736,1.381,11.535,11.535,0,0,0,6.445-1.514,8.519,8.519,0,0,0,5,1.514h1.514c2.7-.131,4.67-.922,5.854-2.3l28.086-28.545-2.829-2.829ZM112.164,49.476a5.422,5.422,0,0,1,3.289,1.315h-.066l3.223,3.289.525.46,10.656,10.787-2.631,2.7L109.139,49.87a6.884,6.884,0,0,1,3.025-.394Zm-10.918,0a5.4,5.4,0,0,1,3.223,1.315l19.863,20.061-2.631,2.7L98.221,49.87a6.881,6.881,0,0,1,3.025-.394Zm-14.339.591a6,6,0,0,1,3.354-.592,5.085,5.085,0,0,1,3.223,1.315l25.389,25.652-2.895,2.96Zm-9.6,53.8a5.086,5.086,0,0,1-3.223-1.316l-3.223-3.289-.46-.459L59.676,88.019l2.631-2.7,18.022,18.154a6.885,6.885,0,0,1-3.025.395Zm10.918,0A5.4,5.4,0,0,1,85,102.555h.065l-3.289-3.289-.46-.459L65.135,82.494l2.631-2.7,23.481,23.679A6.642,6.642,0,0,1,88.222,103.871Zm10.985,0a5.241,5.241,0,0,1-3.224-1.316L92.76,99.266l-.46-.459L70.6,76.9l2.96-2.96,29.006,29.336a6,6,0,0,1-3.354.592Z" transform="translate(-8.504)" fill="#57aae2" fill-rule="evenodd"/>
    <path id="Path_85342" data-name="Path 85342" d="M17.252,122.287h-.066a.132.132,0,0,1,0-.264h.329a2.184,2.184,0,0,0,1.907-2.1v-.789a2.19,2.19,0,0,0-2.17-2.172H8.635a.23.23,0,0,0-.131.066v1.381a.208.208,0,0,0,.066.133H8.7c.4.064.987.395.987.656v6.775c0,.264-.526.525-1.053.592a.231.231,0,0,0-.065.131c-.066,0-.066.133-.066.133v1.314a.143.143,0,0,0,.131.133h8.617a2.772,2.772,0,0,0,2.565-2.7v-1.119c0-1.183-.657-2.169-2.565-2.169Zm-.329,2.631c0,1.184-.724,1.514-1.645,1.514h-2.5l-.066-.066-.065-.066v-7.432a.2.2,0,0,1,.131-.066h2.5a1.137,1.137,0,0,1,1.118.988v.656c0,.264-.526,1.053-1.118,1.053H14.16a.368.368,0,0,0-.4.328v1.25a.369.369,0,0,0,.4.33h1.25c1.184.064,1.447.723,1.513,1.051Zm154.766-2.631h-.066a.132.132,0,0,1,0-.264h.33a2.184,2.184,0,0,0,1.906-2.1v-.789a2.19,2.19,0,0,0-2.17-2.172h-8.617a.234.234,0,0,0-.131.066v1.381a.208.208,0,0,0,.066.133h.131c.4.064,1.053.395,1.053.656v6.775c0,.264-.592.525-1.053.592l-.131.131c-.066,0-.066.133-.066.133v1.314a.143.143,0,0,0,.131.133h8.617a2.782,2.782,0,0,0,2.631-2.7v-1.119c0-1.183-.724-2.169-2.631-2.169Zm-.328,2.631c0,1.184-.658,1.514-1.58,1.514h-2.564l-.066-.066-.064-.066V119s0-.131.064-.131c0-.066.133-.066.133-.066h2.5a1.073,1.073,0,0,1,1.053.988v.656a1.323,1.323,0,0,1-1.117,1.053H168.6a.31.31,0,0,0-.328.328v1.25a.311.311,0,0,0,.328.33h1.25c1.184.064,1.514.723,1.514,1.051v.46ZM42.97,116.959H39.484c-.329,0-.329,0-.329.33v.789c0,.2.263.131.263.131a.424.424,0,0,1,.329.2l.066.133a1.133,1.133,0,0,1-.131.459c-.2.33-.921,1.514-1.25,1.975,0,.131-.2.262-.4.262a.437.437,0,0,1-.329-.262l-1.315-1.842a1,1,0,0,1,0-.789c.066-.133.329-.2.4-.2.132,0,.264,0,.264-.264v-.658a.242.242,0,0,0-.264-.264H32.38c-.131,0-.329,0-.329.2v.855c0,.33,0,.395.2.461a1.375,1.375,0,0,1,.789.395l3.091,4.406v2.961c0,.131-.329.2-.592.262l-.263.066a.23.23,0,0,0-.131.066v1.512a.143.143,0,0,0,.131.133h4.8c.065,0,.065-.066.131-.133v-1.512c-.066,0-.066-.066-.131-.066h-.132c-.4-.066-.855-.264-.921-.461v-2.564l2.565-3.947a4.068,4.068,0,0,1,.592-.723.752.752,0,0,1,.461-.328l.329-.066c.329,0,.329-.066.329-.264v-.92c0-.33-.065-.33-.328-.33Zm107.409,9.473v-2.369a.353.353,0,0,0-.33-.328h-.854a.427.427,0,0,0-.4.328v.461a1.546,1.546,0,0,1-.133.592,2.1,2.1,0,0,1-1.053.986,3.71,3.71,0,0,1-1.314.133h-1.184a.348.348,0,0,1-.2-.264V119.2c0-.262.592-.525,1.051-.592a.211.211,0,0,0,.133-.064v-1.447a.235.235,0,0,0-.066-.133h-4.67a.143.143,0,0,0-.131.133v1.447a.206.206,0,0,0,.131.064c.461.066,1.053.33,1.053.592v6.775c0,.264-.592.525-1.053.592a.205.205,0,0,0-.131.066v1.447a.143.143,0,0,0,.131.131h8.748a.369.369,0,0,0,.33-.395v-1.25a.2.2,0,0,0-.066-.13Zm-35.453,0v-2.369a.351.351,0,0,0-.328-.328h-.922a.351.351,0,0,0-.328.328v.461a1.585,1.585,0,0,1-.131.592,2.805,2.805,0,0,1-1.053.986,3.8,3.8,0,0,1-1.316.133h-1.184c-.131-.066-.264-.2-.264-.264V119.2c0-.262.658-.525,1.119-.592a2.99,2.99,0,0,0,.13-.13v-1.381a.141.141,0,0,0-.131-.133h-4.67c-.066,0-.066.066-.066.133l-.064,1.381c.064,0,0,.066.064.066a.064.064,0,0,0,.066.064c.525.066,1.117.33,1.117.592v6.775c0,.264-.592.525-1.117.592a.065.065,0,0,0-.066.066c-.064,0,0,.064-.064.064l.064,1.383c0,.064,0,.131.066.131H114.6a.425.425,0,0,0,.4-.4v-1.25a.238.238,0,0,1-.065-.13Zm41.24-.067a6.382,6.382,0,0,1-1.184-.066,1.134,1.134,0,0,1-.92-.525c-.2-.328-.066-1.25-.133-1.514V119.2c0-.262.658-.525,1.119-.592a.208.208,0,0,0,.131-.064v-1.447a.143.143,0,0,0-.131-.133h-5.131a.231.231,0,0,0-.066.133v1.447a.209.209,0,0,0,.133.064c.461.066,1.053.33,1.053.592v5.789a5.535,5.535,0,0,0,.262,1.842c.592.986,1.58,1.512,4.473,1.512h.592c2.9,0,4.014-.525,4.6-1.512a5.535,5.535,0,0,0,.262-1.842V119.2c0-.262.594-.525,1.053-.592,0,0,.133,0,.133-.064.064-.066,0-.066,0-.066v-1.381c0-.066,0-.133-.066-.133H157.22a.141.141,0,0,0-.131.133v1.381l.064.066a.064.064,0,0,0,.066.064c.461.066,1.119.33,1.119.592v5.064a4.068,4.068,0,0,1-.133,1.514,1.134,1.134,0,0,1-.92.525,6,6,0,0,1-1.119.066Zm-15.654-1.316a.31.31,0,0,0-.328-.328h-.922a.31.31,0,0,0-.328.328v.133c0,.461-.658,1.053-.986,1.184a2.836,2.836,0,0,1-1.578.264,3.089,3.089,0,0,1-1.645-.264,2.835,2.835,0,0,1-1.119-1.316,5.6,5.6,0,0,1-.328-2.564c0-1.644.066-2.434.328-2.762a2.989,2.989,0,0,1,4.408-.395,1.119,1.119,0,0,1,.4.723v.133a.31.31,0,0,0,.328.328h.922a.31.31,0,0,0,.328-.328l.066-2.7a.613.613,0,0,0-.2-.395,13.3,13.3,0,0,0-3.486-.395,8.448,8.448,0,0,0-4.078.92,5.313,5.313,0,0,0-2.172,4.67c0,2.895.658,3.947,1.383,4.6a5.563,5.563,0,0,0,3.486,1.447,2.577,2.577,0,0,0,.986.133h.4a4.333,4.333,0,0,0,.986-.066,8.66,8.66,0,0,0,2.828-.328.37.37,0,0,0,.4-.33l-.067-2.7Zm-54.263,0v-2.761a.427.427,0,0,0-.329-.395H81.842a.369.369,0,0,0-.329.395v1.184a.352.352,0,0,0,.329.33h1.579v2.434c-.131.064-.2.131-.263.131a2.842,2.842,0,0,1-1.579.264h-.065a2.956,2.956,0,0,1-1.579-.264,2.833,2.833,0,0,1-1.118-1.316,5.576,5.576,0,0,1-.329-2.564c0-1.644.066-2.434.329-2.762a2.337,2.337,0,0,1,2.3-1.184c1.381,0,1.842.459,2.1.789a1.119,1.119,0,0,1,.395.723v.133a.31.31,0,0,0,.329.328h.921a.31.31,0,0,0,.329-.328l.065-2.7a.613.613,0,0,0-.2-.395,13.286,13.286,0,0,0-3.486-.395,8.451,8.451,0,0,0-4.078.92,5.315,5.315,0,0,0-2.171,4.67c0,2.895.658,3.947,1.381,4.6A5.565,5.565,0,0,0,80.2,128.34a2.585,2.585,0,0,0,.986.133h.395a4.343,4.343,0,0,0,.987-.066,17.7,17.7,0,0,0,3.354-.328.312.312,0,0,0,.329-.33v-2.7h0Zm-55.908-7.432a8.219,8.219,0,0,0-3.815-.92H26.2a8.214,8.214,0,0,0-3.815.92c-.789.461-2.171,1.842-2.171,4.67,0,2.895.592,3.947,1.382,4.6a5.345,5.345,0,0,0,3.42,1.447,2.874,2.874,0,0,0,.987.133h.526a7.119,7.119,0,0,0,1.184-.133,5.351,5.351,0,0,0,3.42-1.447c.789-.656,1.381-1.709,1.381-4.6,0-2.828-1.381-4.209-2.17-4.67Zm-1.25,7.432a2.92,2.92,0,0,1-1.184,1.316,2.717,2.717,0,0,1-1.513.264,2.956,2.956,0,0,1-1.579-.264,2.925,2.925,0,0,1-1.184-1.316,6.81,6.81,0,0,1-.329-2.564,6.528,6.528,0,0,1,.329-2.762A2.527,2.527,0,0,1,26,118.539h.723a2.162,2.162,0,0,1,2.368,1.184,6.543,6.543,0,0,1,.329,2.762A6.793,6.793,0,0,1,29.091,125.049Zm35.716,9.142a5.626,5.626,0,0,0-2.96-.656h-.2a5.466,5.466,0,0,0-2.96.656,4.039,4.039,0,0,0-1.71,3.619c0,2.17.526,3.025,1.053,3.551a4.706,4.706,0,0,0,2.7,1.119c.066,0,.46.064.724.064h.591c.263,0,.658-.064.724-.064a4.269,4.269,0,0,0,2.631-1.119c.592-.525,1.118-1.381,1.118-3.551a4.045,4.045,0,0,0-1.711-3.619Zm-.987,5.723a2.846,2.846,0,0,1-.855,1.053,3.858,3.858,0,0,1-2.435,0,2.32,2.32,0,0,1-.854-1.053,4.222,4.222,0,0,1-.263-1.973,4.415,4.415,0,0,1,.263-2.17,1.941,1.941,0,0,1,1.776-.922h.2v.066h.2v-.066h.2a1.942,1.942,0,0,1,1.776.922c.2.262.263.855.263,2.17a4.214,4.214,0,0,1-.262,1.973ZM92.3,126.629a.2.2,0,0,0-.132-.066c-.46-.066-1.052-.328-1.052-.592v-6.709c0-.264.592-.592,1.052-.658H92.3v-1.512c0-.066-.066-.066-.132-.066h-4.6c-.065,0-.131,0-.131.066V118.6h.131c.461.066,1.053.395,1.053.658v6.709c0,.264-.592.525-1.053.592a.2.2,0,0,0-.131.066v1.447a.143.143,0,0,0,.131.131h4.6a.142.142,0,0,0,.132-.131v-1.447Zm27.3,14.4a.063.063,0,0,0-.064-.066c-.4-.064-.855-.264-.855-.461v-5.2c0-.2.459-.4.855-.461h.064a.091.091,0,0,0,0-.131v-1.053a.064.064,0,0,0-.064-.066h-3.553a.226.226,0,0,0-.131.066v1.053a.2.2,0,0,0,.064.131h.066c.33.066.789.264.789.461v5.2c0,.2-.459.4-.789.461a6.025,6.025,0,0,0-.13.132v1.051c0,.066.064.066.131.066h3.553c.064,0,.064,0,.064-.066V141.1s.066-.067,0-.067Zm-14.338-14.4a.2.2,0,0,0-.131-.066c-.461-.066-1.053-.328-1.053-.592v-1.578c0-1.184-.33-2.105-2.236-2.105h-.066v-.066h-.066a.131.131,0,1,1,0-.262h.33a2.146,2.146,0,0,0,1.906-2.17v-.658a2.134,2.134,0,0,0-2.1-2.172h-4.67v.066H93.221c-.066,0-.131,0-.131.066V118.6h.131c.46.066,1.053.395,1.053.658v6.709c0,.264-.592.525-1.053.592a.2.2,0,0,0-.131.066v1.447a.142.142,0,0,0,.131.131h4.6a.143.143,0,0,0,.133-.131v-1.447a.206.206,0,0,0-.133-.066c-.459-.066-1.052-.328-1.052-.592v-6.709c0-.2.131-.328.4-.461h2.695a1.073,1.073,0,0,1,1.053.988v.525c0,.264-.461,1.184-1.117,1.117H98.155a.369.369,0,0,0-.33.395v1.186a.311.311,0,0,0,.33.328H99.93c1.25.131,1.184.789,1.184,1.053v3.551c.066.2.527.264.527.264h3.486a.143.143,0,0,0,.131-.131v-1.448Zm10.129,14.4a.2.2,0,0,0-.131-.066c-.33-.064-.789-.264-.789-.461v-1.184c0-.92-.264-1.645-1.777-1.645h-.064a.222.222,0,0,1-.066-.131.064.064,0,0,1,.066-.066h.262a1.7,1.7,0,0,0,1.447-1.709v-.527a1.63,1.63,0,0,0-1.645-1.645h-6.643l-.066.066v1.184h.133c.328.066.789.264.789.461v5.2c0,.2-.461.4-.789.461a.208.208,0,0,0-.133.066v1.117a.065.065,0,0,0,.066.066h3.617c.066,0,.066,0,.066-.066v-1.115a.065.065,0,0,0-.066-.066c-.395-.064-.855-.264-.855-.461v-5.2c0-.066.133-.2.33-.264h2.039a.81.81,0,0,1,.855.725v.4c0,.2-.33.92-.855.855h-1.25a.3.3,0,0,0-.264.328v.922a.282.282,0,0,0,.264.262h1.381c.922.066.855.592.855.789v2.7c.066.2.395.2.395.2h2.762a.065.065,0,0,0,.066-.066v-1.12ZM45.271,122.814c.921.262,2.5.723,3.618.92,1.053.131,1.513.658,1.381,1.645-.2.92-1.25,1.117-1.842,1.117a7.881,7.881,0,0,1-1.973-.131,7.464,7.464,0,0,1-.987-1.053l-.2-.525c0-.133-.131-.2-.329-.2h-.987c-.2,0-.263,0-.263.2v3.092c0,.328.46.4,1.71.4h3.289a4.994,4.994,0,0,0,2.5-.592,3.677,3.677,0,0,0,1.579-2.83c-.132-1.643-.2-2.5-1.118-3.09a11.67,11.67,0,0,0-3.552-.855c-1.118-.2-2.039-.395-2.039-1.316,0-.986,1.315-1.117,1.842-1.184a3.071,3.071,0,0,1,1.315.2,1.274,1.274,0,0,1,.789.527,7.677,7.677,0,0,1,.4.855.31.31,0,0,0,.329.328h.921c.263,0,.329-.066.329-.328v-2.895c0-.2-1.119-.2-1.645-.2H46.651a3.4,3.4,0,0,0-2.039.723,3.721,3.721,0,0,0-1.118,2.566A2.565,2.565,0,0,0,45.271,122.814Zm71.958,0c.92.262,2.5.723,3.551.92,1.119.131,1.58.658,1.383,1.645-.133.92-1.25,1.117-1.777,1.117a7.881,7.881,0,0,1-1.973-.131,4.879,4.879,0,0,1-.986-1.053l-.264-.525c0-.133-.131-.2-.262-.2h-1.053c-.133,0-.2,0-.2.2v3.092c0,.328.395.4,1.645.4h3.354a4.806,4.806,0,0,0,2.434-.592,3.5,3.5,0,0,0,1.578-2.83c-.064-1.643-.131-2.5-1.051-3.09a12.1,12.1,0,0,0-3.619-.855c-1.051-.2-1.973-.395-1.973-1.316,0-.986,1.25-1.117,1.842-1.184a3.076,3.076,0,0,1,1.316.2,1.469,1.469,0,0,1,.789.527,7.871,7.871,0,0,1,.395.855.31.31,0,0,0,.328.328h.922c.262,0,.328-.066.328-.328v-2.895c0-.2-1.119-.2-1.711-.2h-3.684a3.15,3.15,0,0,0-1.973.723,3.454,3.454,0,0,0-1.117,2.566,2.482,2.482,0,0,0,1.775,2.631Zm59.591,0c.92.262,2.5.723,3.551.92,1.119.131,1.578.658,1.381,1.645-.131.92-1.248,1.117-1.84,1.117a7.289,7.289,0,0,1-1.908-.131,3.645,3.645,0,0,1-.986-1.053l-.264-.525c0-.133-.131-.2-.328-.2h-.988c-.2,0-.262,0-.262.2v3.092c0,.328.459.4,1.709.4h3.355a4.806,4.806,0,0,0,2.434-.592,3.571,3.571,0,0,0,1.578-2.6v-.23c-.066-1.643-.2-2.5-1.117-3.09a11.217,11.217,0,0,0-3.553-.855c-1.053-.2-1.973-.395-1.973-1.316,0-.986,1.25-1.117,1.842-1.184a2.742,2.742,0,0,1,1.25.2,1.279,1.279,0,0,1,.789.527,3.755,3.755,0,0,1,.459.855.311.311,0,0,0,.33.328h.855c.328,0,.4-.066.4-.328v-2.895c0-.2-1.119-.2-1.711-.2h-3.684a3.4,3.4,0,0,0-2.039.723,3.687,3.687,0,0,0-1.053,2.566,2.417,2.417,0,0,0,1.778,2.631Zm-105.5,4.538c-.065-.131-.2-.131-.46-.131a1.645,1.645,0,0,1-.46-.2l-1.381-.986c.2-.33.329-.658.46-.922a7.4,7.4,0,0,0,.264-2.1c0-.461.131-1.186-.066-1.316,0-.066-.2-.066-.2-.066H67.637a.324.324,0,0,0-.2.066c-.066.066-.066.328-.066.328v.922a2.943,2.943,0,0,1-.263,1.512l-2.763-2.3a3.61,3.61,0,0,0,2.5-2.828c-.066-1.842-1.71-2.566-4.078-2.631-2.7-.066-4.473.986-4.473,2.631a2.213,2.213,0,0,0,.4,1.314l-.066.066.132.066a3.124,3.124,0,0,0,.658.656,4.055,4.055,0,0,0-1.908,3.223c0,2.3,1.053,3.947,5.525,4.078a8.581,8.581,0,0,0,4.275-1.051l.46.2a1.071,1.071,0,0,0,.724.328h2.565c.2,0,.263-.066.263-.264v-.131s.064-.393,0-.459Zm-8.55-9.01c.987,0,1.579.459,1.579.986,0,.658-1.381,1.184-1.71,1.184h-.264a.712.712,0,0,0-.46-.2c-.46-.264-.921-.592-.921-.986C60.992,118.8,61.715,118.275,62.768,118.342Zm.525,8.418c-2.433-.066-2.828-.92-2.828-2.3a2.176,2.176,0,0,1,.79-1.643l4.407,3.484A4.714,4.714,0,0,1,63.293,126.76Zm42.359,13.023a.284.284,0,0,0-.264-.264h-.723a.284.284,0,0,0-.264.264l-.2.461c0,.131-.131.2-.2.328-.2.4-3.42.131-3.42.131-.133-.064-.2-.131-.2-.2v-2.234h2.7c.131,0,.328.2.328.525l.066.066h.853a.065.065,0,0,0,.066-.066v-2.564c0-.066,0-.066-.066-.066h-.853a.065.065,0,0,0-.066.066.448.448,0,0,1-.328.459h-2.7v-1.381l.064-.264a.335.335,0,0,1,.2-.064s2.037,0,2.5.064c.2,0,.658-.064.789.133l.133.262a.282.282,0,0,0,.262.264h.658a.242.242,0,0,0,.264-.264l.066-1.578a.286.286,0,0,0-.264-.264H97.692a.226.226,0,0,0-.131.066v1.053a.2.2,0,0,0,.064.131h.066c.33.066.855.264.855.461v5.2c0,.2-.525.4-.855.461a6.025,6.025,0,0,0-.13.132v1.051c0,.066.064.066.131.066h7.695a.282.282,0,0,0,.264-.264v-2.169h0ZM74.146,133.6H67.109l-.066.066v1.184h.066c.395.066.854.264.854.461v5.2c0,.2-.46.4-.854.461l-.066.066v1.117a.065.065,0,0,0,.066.066h3.618a.065.065,0,0,0,.066-.066v-1.116l-.066-.066A1.372,1.372,0,0,1,70,140.7c-.065,0-.065,0-.065-.064l-.066-.066v-2.3H72.24c.132,0,.329.2.395.525v.066h.921l.066-.066v-2.434h-.066L72.7,136.3l-.066.066v.066c-.065.262-.263.459-.395.459H69.872v-1.842c.066-.064.263-.064.263-.064s1.645,0,2.1.064c.263,0,.724-.064.79.133l.131.262a.283.283,0,0,0,.263.264h.724a.283.283,0,0,0,.263-.264v-1.578a.284.284,0,0,0-.264-.265Zm6.644,0s-.132,0-.132.066a.977.977,0,0,0-.131.2Z" transform="translate(-8.504)" fill="#fff" fill-rule="evenodd"/>
    <path id="Path_85343" data-name="Path 85343" d="M97.1,141.1v-.066a.2.2,0,0,0-.131-.066c-.329-.064-.79-.264-.79-.461l-1.118-5.2c0-.2.2-.4.592-.461h.065a.091.091,0,0,0,0-.131v-1.053a.064.064,0,0,0-.065-.066H93.024s-.329,0-.395.066a2.578,2.578,0,0,0-.2.264l-.592,1.775a8.306,8.306,0,0,1-.395,1.184c-.131,0-.395-1.117-.395-1.117l-.592-1.711a2.251,2.251,0,0,0-.2-.4,1.461,1.461,0,0,0-.461-.067H87.169a.23.23,0,0,0-.131.066v1.053a.2.2,0,0,0,.066.131h.065c.329.066.526.264.526.461l-1.052,5.2c-.066.2-.131.33-.329.33-.131,0-.2-.133-.329-.33l-2.631-6.643a.656.656,0,0,1-.066-.2.2.2,0,0,0-.131-.066H80.79s-.132,0-.132.066a.977.977,0,0,0-.131.2L77.9,140.506c0,.2-.46.4-.855.461a.065.065,0,0,0-.066.066v1.117c0,.066,0,.066.066.066h3.42c.066,0,.066,0,.066-.066V141.1s.066-.066,0-.066a.065.065,0,0,0-.066-.066c-.395-.064-.723-.2-.657-.461l.526-1.381h2.763l.526,1.381c.132.2-.131.4-.526.461a.065.065,0,0,0-.066.066v1.117c0,.066,0,.066.066.066h5.919c.066,0,.066,0,.066-.066v-1.117l-.066-.066c-.395-.064-.46-.264-.46-.461l.46-3.617s0-.4.132-.4c.065,0,.2.592.2.592l.724,2.566a2.1,2.1,0,0,0,.2.328c.065.131.395.2.395.2h1.118a.652.652,0,0,0,.263-.066,1.879,1.879,0,0,0,.263-.525l.854-2.828s.066-.264.132-.264c.131,0,.131.4.131.4l.526,3.617c0,.2-.131.4-.46.461a437910170341.064,437910170341.064,0,0,1-.132.132v1.051c0,.066,0,.066.066.066h3.617c.066,0,.066,0,.066-.066V141.1h0Zm-14.668-3.422c0,.066-.132,0-.132,0H80.921l.065-.131.724-1.973.724,1.906S82.5,137.613,82.434,137.678Zm53.211,3.355a.063.063,0,0,0-.064-.066c-.33-.064-.855-.264-.855-.461l-2.631-6.643a.324.324,0,0,0-.066-.2.2.2,0,0,0-.131-.066h-2.369s-.131,0-.131.066a.933.933,0,0,0-.131.2l-2.236,5.656s-.461,1.119-1.119,1.316a5.285,5.285,0,0,1-1.512.2,2.39,2.39,0,0,1-1.25-.2,2.7,2.7,0,0,1-.922-.986,7.751,7.751,0,0,1-.2-2.039,5.958,5.958,0,0,1,.2-2.1,2.019,2.019,0,0,1,1.842-.92c1.053,0,1.447.4,1.58.592a.894.894,0,0,1,.328.592v.064a.241.241,0,0,0,.264.264h.723a.241.241,0,0,0,.264-.264v-2.039a.294.294,0,0,0-.133-.328,12.164,12.164,0,0,0-2.695-.264,6.007,6.007,0,0,0-3.092.658,4.131,4.131,0,0,0-1.711,3.617c0,2.236.461,3.025,1.053,3.553a3.96,3.96,0,0,0,2.3.986c.066,0,.789.066,1.117.066h.33a3.2,3.2,0,0,0,.789-.066,16.87,16.87,0,0,0,1.906,0H129.2c.066,0,.066,0,.066-.066l.064-1.051c-.064,0,0-.066-.064-.066a.065.065,0,0,0-.066-.066c-.4-.064-.723-.2-.658-.461l.527-1.381h2.762l.527,1.381c.131.2-.133.4-.527.461a.065.065,0,0,0-.066.066v1.117c0,.066,0,.066.066.066h3.75c.064,0,.131,0,.131-.066V141.1s0-.067-.068-.067Zm-4.407-3.355c-.066.066-.2,0-.2,0H129.66l.064-.131.725-1.973.723,1.906A.676.676,0,0,1,131.238,137.678Z" transform="translate(-8.504)" fill="#fff" fill-rule="evenodd"/>
  </g>
</svg>
