<svg width="1920" height="306" viewBox="0 0 1920 306" fill="none" xmlns="http://www.w3.org/2000/svg">
<g opacity="0.1">
<path d="M99.856 170.22C200.371 170.22 299.753 264.253 405.108 264.253C553.821 264.253 655.968 11.0398 874.109 11.0398C1044.86 11.0398 1229.41 310.966 1395.02 310.966C1502.95 310.966 1593.22 187.587 1718.02 165.709C1759.22 157.966 1794.36 168.138 1834.97 170.22" stroke="#013759" stroke-width="2.2895"/>
</g>
<g opacity="0.4">
<path d="M99.856 170.22C200.371 170.22 297.858 239.617 403.213 239.617C557.487 239.617 610.361 43.6782 829.722 43.6782C990.999 43.6782 1189.87 289.496 1341.26 288.629C1440.74 288.079 1542.6 175.976 1679.55 153.304C1715.51 145.41 1770.55 159.203 1834.97 170.22" stroke="#013759" stroke-width="2.2895"/>
</g>
<g opacity="0.7">
<path d="M99.856 170.22C193.78 170.22 276.808 217.946 382.163 217.974C536.931 218.017 575.046 78.3154 794.398 76.5336C942.904 75.2324 1119.67 265.725 1271.02 262.605C1385.33 260.22 1487.76 164.425 1624.72 142.331C1665.91 134.524 1771.95 163.714 1834.97 170.22" stroke="#013759" stroke-width="2.2895"/>
</g>
<path d="M0 170.22C0 170.22 88.7333 170.22 99.8558 170.22C133.471 170.22 177.467 185.834 211.603 191.471C282.639 203.203 368.98 202.568 405.602 194.292C519.053 168.659 584.641 120.34 676.746 110.755C740.515 104.119 794.892 104.119 882.923 138.346C951.848 165.145 1050.22 208.267 1103.6 221.357C1179.49 239.964 1242.27 238.403 1309.77 216.621C1370.18 197.129 1466.07 151.23 1510.69 141.073C1565.56 128.582 1606.69 135.78 1674.73 145.201C1716.33 150.962 1802.84 170.22 1834.97 170.22C1838.93 170.22 1920 170.22 1920 170.22" stroke="#013759" stroke-width="4.579" stroke-linecap="round" stroke-linejoin="round"/>
<g opacity="0.1">
<path d="M99.856 170.22C108.507 170.22 232.658 106.49 315.424 106.49C500.134 106.49 577.411 332.87 744.867 332.87C969.116 332.87 1089.69 1.71558 1314.57 1.71558C1464.73 1.71558 1517.32 193.682 1687.87 193.682C1776.23 193.682 1820.14 170.22 1834.97 170.22" stroke="#013759" stroke-width="2.2895"/>
</g>
<g opacity="0.25">
<path d="M99.856 170.22C108.507 170.22 197.751 131.863 258.008 131.863C411.212 131.863 499.587 313.352 666.996 313.353C854.811 313.354 1013.64 19.9324 1215.08 19.9324C1365.24 19.9324 1467.24 224.895 1637.76 224.895C1726.16 224.895 1815.13 170.219 1834.97 170.22" stroke="#013759" stroke-width="2.2895"/>
</g>
<g opacity="0.4">
<path d="M99.856 170.22C108.507 170.22 173.687 155.259 233.944 155.269C361.185 155.285 455.137 299.74 591.648 297.082C758.421 293.834 901.226 34.8937 1102.64 34.8972C1252.8 34.9002 1398.65 244.413 1548.18 244.413C1659.41 244.413 1715.09 175.408 1834.97 170.22" stroke="#013759" stroke-width="2.2895"/>
</g>
</svg>
