<svg className="sc-3c802cf8-2 jbYiVa" width="24" height="24" viewBox="0 0 24 24" fill="none" xmlns="http://www.w3.org/2000/svg"><g clipPath="url(#clip0_12_540)"><path d="M13.715 19.9999C12.5732 19.9999 11.7399 19.7249 11.2149 19.1749C10.7286 18.7093 10.4464 18.0701 10.43 17.3971C10.4241 17.1926 10.4715 16.9902 10.5675 16.8095C10.657 16.6535 10.7864 16.524 10.9424 16.4343C11.1237 16.3439 11.3236 16.2968 11.5262 16.2968C11.7288 16.2968 11.9286 16.3439 12.1099 16.4343C12.2656 16.5236 12.3944 16.6533 12.4828 16.8095C12.5816 16.9893 12.6307 17.1921 12.6252 17.3971C12.6354 17.642 12.5651 17.8834 12.4252 18.0846C12.3086 18.2488 12.1418 18.3708 11.95 18.4323C12.1376 18.6711 12.403 18.8366 12.7 18.8999C13.0323 18.9964 13.3765 19.046 13.7225 19.0473C14.1806 19.0513 14.6293 18.9172 15.01 18.6623C15.405 18.3833 15.6995 17.9844 15.85 17.5249C16.0407 16.9779 16.1338 16.4016 16.125 15.8224C16.1404 15.2186 16.0385 14.6175 15.825 14.0524C15.6644 13.6005 15.3596 13.2139 14.9575 12.9524C14.5838 12.7159 14.15 12.5918 13.7077 12.5949C13.3224 12.6276 12.9508 12.7537 12.6252 12.9624L11.8225 13.3649V12.9624L15.43 8.12301H10.43V13.1449C10.4159 13.5073 10.5117 13.8655 10.705 14.1724C10.7985 14.3062 10.9249 14.4135 11.0721 14.484C11.2193 14.5545 11.3821 14.5858 11.545 14.5749C11.8458 14.5688 12.1367 14.4663 12.3749 14.2824C12.6449 14.0846 12.8798 13.8429 13.0699 13.5674C13.087 13.5191 13.1186 13.4772 13.1603 13.4475C13.1938 13.4185 13.2366 13.4025 13.2809 13.4025C13.3677 13.4104 13.4499 13.4453 13.5159 13.5024C13.5994 13.5958 13.6449 13.7171 13.6433 13.8424C13.6337 13.9266 13.6187 14.0101 13.5983 14.0924C13.4207 14.5223 13.123 14.8919 12.7408 15.157C12.3858 15.3972 11.9665 15.5246 11.5379 15.5224C10.4554 15.5224 9.70544 15.3091 9.28808 14.8824C9.07356 14.6466 8.90823 14.3704 8.80177 14.0699C8.69531 13.7694 8.64986 13.4507 8.66807 13.1324V8.12301H6.12495V7.18993H8.67992V5.06244L8.09497 4.47708V4H9.79239L10.43 4.33004V7.18993L17.0349 7.16984L17.6925 7.82983L13.6424 11.8995C13.8871 11.8011 14.1448 11.7388 14.4074 11.7145C14.9271 11.7373 15.4342 11.882 15.8877 12.137C16.4127 12.3866 16.8552 12.7815 17.1627 13.2749C17.4382 13.6926 17.6333 14.1581 17.7378 14.6474C17.8236 15.0334 17.8697 15.4272 17.8753 15.8225C17.8779 16.5771 17.7068 17.3221 17.3753 17.9999C17.0608 18.6563 16.5316 19.1855 15.8752 19.5C15.2033 19.8311 14.464 20.0022 13.715 19.9999V19.9999Z" fill="#2C7DF7"></path></g><defs><clipPath id="clip0_12_540"><rect width="11.7501" height="16" fill="white" transform="translate(6.12495 4)"></rect></clipPath></defs></svg>