<svg width="22" height="16" viewBox="0 0 22 16" fill="none" xmlns="http://www.w3.org/2000/svg">
<path d="M21.1281 8.41251L16.8438 14.8344C16.7072 15.0398 16.5218 15.2082 16.3042 15.3244C16.0866 15.4405 15.8436 15.5009 15.5969 15.5H1.75C1.35218 15.5 0.970644 15.342 0.68934 15.0607C0.408035 14.7794 0.25 14.3978 0.25 14V2.00001C0.25 1.60218 0.408035 1.22065 0.68934 0.939349C0.970644 0.658045 1.35218 0.50001 1.75 0.50001H15.5969C15.8436 0.499122 16.0866 0.55947 16.3042 0.675641C16.5218 0.791813 16.7072 0.960176 16.8438 1.16563L21.1281 7.58751C21.2112 7.70905 21.2556 7.85282 21.2556 8.00001C21.2556 8.1472 21.2112 8.29097 21.1281 8.41251V8.41251Z" fill="white"/>
</svg>
