<svg width="24" height="24" viewBox="0 0 24 24" fill="none" xmlns="http://www.w3.org/2000/svg">
<g clip-path="url(#clip0_1221_287)">
<path d="M12.0059 0.181818C7.07099 0.181818 5.62772 0.186909 5.34718 0.210182C4.33445 0.294364 3.70427 0.453818 3.01772 0.795636C2.48863 1.05836 2.07136 1.36291 1.65954 1.78982C0.90954 2.56836 0.454994 3.52618 0.290449 4.66473C0.210449 5.21745 0.187176 5.33018 0.182449 8.15346C0.180631 9.09455 0.182449 10.3331 0.182449 11.9944C0.182449 16.9253 0.187903 18.3671 0.21154 18.6471C0.293358 19.6325 0.447903 20.2525 0.775176 20.9307C1.40063 22.2289 2.59518 23.2035 4.00245 23.5671C4.48972 23.6925 5.0279 23.7616 5.71881 23.7944C6.01154 23.8071 8.99518 23.8162 11.9806 23.8162C14.9661 23.8162 17.9515 23.8125 18.237 23.798C19.037 23.7604 19.5015 23.698 20.0152 23.5653C21.4315 23.1998 22.6043 22.2398 23.2424 20.9235C23.5634 20.2616 23.7261 19.618 23.7997 18.684C23.8157 18.4804 23.8224 15.2336 23.8224 11.9913C23.8224 8.74836 23.8152 5.50764 23.7992 5.304C23.7246 4.35491 23.5619 3.71673 23.2306 3.04218C22.9588 2.49 22.657 2.07764 22.2188 1.656C21.4368 0.909091 20.4804 0.454546 19.3408 0.290182C18.7886 0.210364 18.6786 0.186727 15.8532 0.181818H12.0059Z" fill="url(#paint0_radial_1221_287)"/>
<path d="M12.0059 0.181818C7.07099 0.181818 5.62772 0.186909 5.34718 0.210182C4.33445 0.294364 3.70427 0.453818 3.01772 0.795636C2.48863 1.05836 2.07136 1.36291 1.65954 1.78982C0.90954 2.56836 0.454994 3.52618 0.290449 4.66473C0.210449 5.21745 0.187176 5.33018 0.182449 8.15346C0.180631 9.09455 0.182449 10.3331 0.182449 11.9944C0.182449 16.9253 0.187903 18.3671 0.21154 18.6471C0.293358 19.6325 0.447903 20.2525 0.775176 20.9307C1.40063 22.2289 2.59518 23.2035 4.00245 23.5671C4.48972 23.6925 5.0279 23.7616 5.71881 23.7944C6.01154 23.8071 8.99518 23.8162 11.9806 23.8162C14.9661 23.8162 17.9515 23.8125 18.237 23.798C19.037 23.7604 19.5015 23.698 20.0152 23.5653C21.4315 23.1998 22.6043 22.2398 23.2424 20.9235C23.5634 20.2616 23.7261 19.618 23.7997 18.684C23.8157 18.4804 23.8224 15.2336 23.8224 11.9913C23.8224 8.74836 23.8152 5.50764 23.7992 5.304C23.7246 4.35491 23.5619 3.71673 23.2306 3.04218C22.9588 2.49 22.657 2.07764 22.2188 1.656C21.4368 0.909091 20.4804 0.454546 19.3408 0.290182C18.7886 0.210364 18.6786 0.186727 15.8532 0.181818H12.0059Z" fill="url(#paint1_radial_1221_287)"/>
<path d="M12.0014 3.27273C9.63125 3.27273 9.3338 3.28309 8.40289 3.32545C7.4738 3.368 6.83962 3.51509 6.28471 3.73091C5.71071 3.95382 5.2238 4.252 4.73871 4.73727C4.25326 5.22236 3.95507 5.70927 3.73144 6.28309C3.51507 6.83818 3.3678 7.47255 3.32598 8.40127C3.28435 9.33218 3.27344 9.62982 3.27344 12C3.27344 14.3702 3.28398 14.6667 3.32616 15.5976C3.36889 16.5267 3.51598 17.1609 3.73162 17.7158C3.95471 18.2898 4.25289 18.7767 4.73816 19.2618C5.22307 19.7473 5.70998 20.0462 6.28362 20.2691C6.83889 20.4849 7.47326 20.632 8.40216 20.6745C9.33307 20.7169 9.63035 20.7273 12.0003 20.7273C14.3707 20.7273 14.6673 20.7169 15.5982 20.6745C16.5273 20.632 17.1622 20.4849 17.7174 20.2691C18.2913 20.0462 18.7774 19.7473 19.2623 19.2618C19.7478 18.7767 20.046 18.2898 20.2696 17.716C20.4842 17.1609 20.6314 16.5265 20.6751 15.5978C20.7169 14.6669 20.7278 14.3702 20.7278 12C20.7278 9.62982 20.7169 9.33236 20.6751 8.40145C20.6314 7.47236 20.4842 6.83818 20.2696 6.28327C20.046 5.70927 19.7478 5.22236 19.2623 4.73727C18.7769 4.25182 18.2914 3.95364 17.7169 3.73091C17.1605 3.51509 16.526 3.368 15.5969 3.32545C14.666 3.28309 14.3696 3.27273 11.9987 3.27273H12.0014ZM11.2185 4.84545C11.4509 4.84509 11.7102 4.84545 12.0014 4.84545C14.3316 4.84545 14.6078 4.85382 15.528 4.89564C16.3789 4.93455 16.8407 5.07673 17.1483 5.19618C17.5556 5.35436 17.846 5.54345 18.1513 5.84891C18.4567 6.15436 18.6458 6.44527 18.8043 6.85255C18.9238 7.15982 19.0662 7.62164 19.1049 8.47255C19.1467 9.39255 19.1558 9.66891 19.1558 11.998C19.1558 14.3271 19.1467 14.6035 19.1049 15.5235C19.066 16.3744 18.9238 16.8362 18.8043 17.1435C18.6462 17.5507 18.4567 17.8407 18.1513 18.146C17.8458 18.4515 17.5558 18.6405 17.1483 18.7987C16.8411 18.9187 16.3789 19.0605 15.528 19.0995C14.608 19.1413 14.3316 19.1504 12.0014 19.1504C9.67107 19.1504 9.39489 19.1413 8.47489 19.0995C7.62398 19.0602 7.16216 18.918 6.85435 18.7985C6.44707 18.6404 6.15616 18.4513 5.85071 18.1458C5.54526 17.8404 5.35616 17.5502 5.19762 17.1427C5.07816 16.8355 4.9358 16.3736 4.89707 15.5227C4.85526 14.6027 4.84689 14.3264 4.84689 11.9958C4.84689 9.66527 4.85526 9.39036 4.89707 8.47036C4.93598 7.61945 5.07816 7.15764 5.19762 6.85C5.3558 6.44273 5.54526 6.15182 5.85071 5.84636C6.15616 5.54091 6.44707 5.35182 6.85435 5.19327C7.16198 5.07327 7.62398 4.93145 8.47489 4.89236C9.27998 4.856 9.59198 4.84509 11.2185 4.84327V4.84545ZM16.66 6.29455C16.0818 6.29455 15.6127 6.76309 15.6127 7.34145C15.6127 7.91964 16.0818 8.38873 16.66 8.38873C17.2382 8.38873 17.7073 7.91964 17.7073 7.34145C17.7073 6.76327 17.2382 6.29418 16.66 6.29418V6.29455ZM12.0014 7.51818C9.52635 7.51818 7.51962 9.52491 7.51962 12C7.51962 14.4751 9.52635 16.4809 12.0014 16.4809C14.4765 16.4809 16.4825 14.4751 16.4825 12C16.4825 9.52491 14.4763 7.51818 12.0013 7.51818H12.0014ZM12.0014 9.09091C13.608 9.09091 14.9105 10.3933 14.9105 12C14.9105 13.6065 13.608 14.9091 12.0014 14.9091C10.3947 14.9091 9.09235 13.6065 9.09235 12C9.09235 10.3933 10.3947 9.09091 12.0014 9.09091Z" fill="white"/>
</g>
<defs>
<radialGradient id="paint0_radial_1221_287" cx="0" cy="0" r="1" gradientUnits="userSpaceOnUse" gradientTransform="translate(6.46126 25.6365) rotate(-90) scale(23.4234 21.7915)">
<stop stop-color="#FFDD55"/>
<stop offset="0.1" stop-color="#FFDD55"/>
<stop offset="0.5" stop-color="#FF543E"/>
<stop offset="1" stop-color="#C837AB"/>
</radialGradient>
<radialGradient id="paint1_radial_1221_287" cx="0" cy="0" r="1" gradientUnits="userSpaceOnUse" gradientTransform="translate(-3.77832 1.8844) rotate(78.6776) scale(10.4705 43.1706)">
<stop stop-color="#3771C8"/>
<stop offset="0.128" stop-color="#3771C8"/>
<stop offset="1" stop-color="#6600FF" stop-opacity="0"/>
</radialGradient>
<clipPath id="clip0_1221_287">
<rect width="24.0007" height="24" fill="white"/>
</clipPath>
</defs>
</svg>
