<svg class="sc-3c802cf8-3 jZBeNp" xmlns="http://www.w3.org/2000/svg" viewBox="0 0 1642.63 1643.16"><g id="Layer_2" data-name="Layer 2"><g id="Layer_1-2" data-name="Layer 1"><path d="M1642.3,809.36c-1.89-49.56-9.45-98.73-19.12-147.31a811.9,811.9,0,0,0-80.5-224.48A825.08,825.08,0,0,0,1128.14,64,808.94,808.94,0,0,0,990,21.61C963.6,16,936.6,10.73,909.4,6.78,875.59,1.88,841.49-.95,807.81.29c-53,2-105.41,11-157.15,22q-28.6,6.12-56.73,14.25A820.39,820.39,0,0,0,56.7,530.14C32.93,591.93,18.23,656,7.36,721.18q-1.08,6.54-2,13.1C-6.19,816.51,2.23,899.79,18.2,981,85.59,1323.4,365.11,1586.8,711,1634c7.22,1,14.3,3,21.45,4.57,0,0,92.77,10.36,176.93,0,23.25-4.37,46.55-8.53,69.75-13.14a820.4,820.4,0,0,0,643.41-637c5.34-25.51,10.21-51.33,13.81-77.32C1641,877.35,1643.59,843.31,1642.3,809.36ZM819.35,1529.42c-388.14-.28-705.55-319.37-705.15-708.89.4-388,319.65-705.07,709.49-704.55,386.61.52,704.13,319.71,704,707.66C1527.47,1211.94,1208.57,1529.71,819.35,1529.42Z" style="fill: rgb(92, 189, 109);"></path><path class="cls-1" d="M664.88,747.07C639.65,733.32,612.14,730,584,730c-61.43-.12-122.87.28-184.29-.37-31-.33-46.31-17.08-44.31-45.73,1.72-24.59,16.13-37.51,45.09-37.69,81.91-.49,163.82.08,245.73-.39,74-.43,66,9.88,66.81-69.8.2-20.64-7.37-29.47-28.8-29.32-98.29.65-196.59,0-294.88.57-33.07.2-62.45,12.16-87.18,34.5-43.24,39.06-57,104.16-34.53,162.91,19.6,51.28,67.67,83.39,127.06,83.83,65.52.48,131.06-.26,196.58.47,35.71.4,55.41,27.92,43.68,59.21-8.26,22-26.27,27-47.5,26.94-105.67-.15-211.33-.51-317,.17-67.33.43-62.75-12.21-63.6,65.35-.26,24.07,8.17,33.92,32.86,33.47,59-1.07,118-.34,191.22-.34,52.81-1.88,120.17,4.66,187-2.88,59.36-6.69,104.18-50.12,114.52-106C745.18,836.42,719.73,776.94,664.88,747.07Z" style="fill: rgb(92, 189, 109);"></path><path class="cls-1" d="M1090.07,642.09c-81.64,2.24-135.53,59-136.46,140.41-.41,36-.09,72.06-.29,108.1-.06,10-.78,19.52-13,23.48-44.25,14.3-74.37-7.33-74.46-54.25q-.23-125.3-.05-250.59c0-73.7.41-147.41-.12-221.11-.54-75.44,10.36-66.28-68.74-67.59-22.35-.37-30.41,8.29-30.35,30.32.49,176.07-.09,352.14.59,528.2.18,46.31,20.27,83.87,58.8,110.4,28.69,19.75,61.57,25.09,95.38,24.11a31.25,31.25,0,0,1,32.47,31.81c-.88,71.23-.53,142.49-.22,213.73.32,73.56-7.66,65.09,65.9,65.38,29.38.12,32.33-2.93,32.42-32.46.25-77.8.1-155.6.12-233.39,0-90.09-.2-180.17.25-270.25.17-33.65,12.24-47.54,42.33-47.86q99.48-1,199,0c27.36.25,40.73,13.51,41.85,40.82,1.1,27,.67,54,.42,81.06-.37,40.58-12.18,52.38-53.16,52.58-56.85.29-132.94.2-192.65.18a12.22,12.22,0,0,0-12.23,12.23V1001A12.22,12.22,0,0,0,1090,1013.2c72.76.19,158.54,5.07,229.39-3,59.3-6.72,103.3-52.14,111.95-111.06,6.46-43.91,5.75-88.41,1.35-132.34-7.42-74.21-59.33-122.77-133.82-124.74Q1194.53,639.33,1090.07,642.09Z" style="fill: rgb(92, 189, 109);"></path></g></g></svg>