<svg xmlns="http://www.w3.org/2000/svg" width="16" height="16" viewBox="0 0 16 16">
  <path id="coolicon" d="M8,16c-2.185,0-2.443-.012-3.3-.049a5.856,5.856,0,0,1-1.941-.4A4.1,4.1,0,0,1,.422,13.218a5.84,5.84,0,0,1-.372-1.94C0,10.428,0,10.149,0,7.984,0,5.8.012,5.54.05,4.693A5.839,5.839,0,0,1,.422,2.755,4.093,4.093,0,0,1,2.761.42,5.811,5.811,0,0,1,4.7.048C5.55,0,5.829,0,8,0c2.2,0,2.456.012,3.3.048A5.848,5.848,0,0,1,13.237.42a4.1,4.1,0,0,1,2.339,2.335,5.822,5.822,0,0,1,.374,1.967c.05.85.05,1.128.05,3.292s-.012,2.448-.05,3.289a5.848,5.848,0,0,1-.373,1.942,4.1,4.1,0,0,1-2.34,2.335,5.882,5.882,0,0,1-1.942.372C10.447,16,10.169,16,8,16ZM7.965,1.4c-2.173,0-2.4.011-3.247.049a4.438,4.438,0,0,0-1.483.276A2.654,2.654,0,0,0,1.708,3.248a4.443,4.443,0,0,0-.276,1.5c-.047.86-.047,1.085-.047,3.24,0,2.129.008,2.387.047,3.242a4.489,4.489,0,0,0,.276,1.481,2.655,2.655,0,0,0,1.527,1.518,4.377,4.377,0,0,0,1.483.276c.86.05,1.087.05,3.247.05,2.179,0,2.4-.011,3.246-.05a4.416,4.416,0,0,0,1.484-.276,2.663,2.663,0,0,0,1.519-1.516,4.466,4.466,0,0,0,.276-1.5h.01c.038-.848.038-1.074.038-3.242s-.01-2.4-.048-3.242a4.48,4.48,0,0,0-.276-1.48A2.663,2.663,0,0,0,12.7,1.729a4.4,4.4,0,0,0-1.484-.276C10.352,1.4,10.128,1.4,7.965,1.4ZM8,12.082a4.1,4.1,0,1,1,4.1-4.1A4.107,4.107,0,0,1,8,12.082ZM8,5.316a2.661,2.661,0,1,0,2.665,2.661A2.663,2.663,0,0,0,8,5.316Zm4.264-.633a.958.958,0,1,1,.68-.28A.957.957,0,0,1,12.26,4.684Z" fill="#487bed"/>
</svg>
