<svg width="184" height="32" viewBox="0 0 184 32" fill="none" xmlns="http://www.w3.org/2000/svg">
<path d="M31.2127 13.8485V19.4869C31.2127 23.0479 29.5487 24.3833 25.8173 24.3833H22.2876C18.052 24.3833 15.4299 23.2952 15.4299 19.289C15.4299 15.2828 18.052 14.1453 22.2876 14.1453H26.372V13.8485C26.372 11.9691 25.2627 11.1777 22.7415 11.1777C21.4809 11.1777 20.2707 11.3756 18.6571 11.7218C17.5478 11.9196 16.8922 11.425 16.8922 10.3369V9.69397C16.8922 8.75425 17.4469 8.16074 18.5562 7.91344C20.4724 7.51777 21.9347 7.27048 23.4474 7.27048C28.1369 7.27048 31.2127 9.24884 31.2127 13.8485ZM26.4224 19.2396V17.5085H22.5398C20.4219 17.5085 20.0185 18.0031 20.0185 19.2396C20.0185 20.476 20.4724 20.9706 22.5398 20.9706H24.6576C26.1703 20.9706 26.4224 20.3771 26.4224 19.2396Z" fill="white"/>
<path d="M70.8462 17.5579L63.3834 18.2998C63.9885 20.2287 65.4508 20.8717 67.7703 20.8717C68.8796 20.8717 70.2411 20.7728 71.7538 20.4266C72.8631 20.1793 73.5691 20.6244 73.5691 21.762V22.2566C73.5691 23.1963 73.1153 23.7898 72.2076 24.0371C70.3419 24.5317 68.6779 24.68 67.0643 24.68C61.8202 24.68 58.3914 21.8609 58.3914 15.9753C58.3914 10.4358 61.2655 7.22101 67.1148 7.22101C72.0059 7.22101 74.7793 9.49612 74.7793 13.7496C74.7288 16.2226 73.9725 17.2117 70.8462 17.5579ZM70.1402 13.3539C70.1402 11.7218 69.283 10.881 67.0139 10.881C64.5935 10.881 63.3329 11.9691 63.0808 14.8377L68.93 14.2442C69.9385 14.1453 70.1402 13.9474 70.1402 13.3539Z" fill="white"/>
<path d="M98.1762 3.11592C98.1762 4.84699 96.7643 6.23184 94.9995 6.23184C93.2346 6.23184 91.8228 4.84699 91.8228 3.11592C91.8228 1.38485 93.2346 0 94.9995 0C96.7643 0 98.1762 1.38485 98.1762 3.11592Z" fill="white"/>
<path d="M37.5662 1.38484H35.5996C34.7929 1.38484 34.0869 2.02781 34.0869 2.86861V22.8995C34.0869 23.6909 34.7424 24.3833 35.5996 24.3833H37.5662C38.373 24.3833 39.0789 23.7403 39.0789 22.8995V2.86861C39.0789 2.07727 38.373 1.38484 37.5662 1.38484Z" fill="white"/>
<path d="M58.1898 22.5533L58.0889 22.4544L51.685 15.3817L57.9881 9.29829L58.0385 9.24883C58.7444 8.50694 58.4419 7.76506 57.383 7.61668C57.2317 7.56722 57.0804 7.56722 56.8787 7.56722H56.8283H55.1139C54.3575 7.56722 53.6012 7.86398 53.1473 8.30911L46.8443 14.442V2.86861C46.8443 2.07727 46.1888 1.38484 45.3316 1.38484H43.365C42.5582 1.38484 41.8523 2.02781 41.8523 2.86861V22.8995C41.8523 23.6909 42.5078 24.3833 43.365 24.3833H45.3316C46.1384 24.3833 46.8443 23.7403 46.8443 22.8995V16.5193L53.1978 23.5425L53.2482 23.5919C53.702 24.136 54.5592 24.4328 55.4164 24.3833H55.3156H57.03H56.8787C57.0804 24.3833 57.3326 24.3833 57.5343 24.3338C58.5932 24.136 58.8957 23.3447 58.1898 22.5533Z" fill="white"/>
<path d="M17.9006 1.38484H1.51273C0.705941 1.38484 0 2.02781 0 2.86861V4.25347C0 5.04481 0.655516 5.73724 1.51273 5.73724H7.21068V22.8995C7.21068 23.6909 7.8662 24.3833 8.72341 24.3833H10.69C11.4967 24.3833 12.2027 23.7403 12.2027 22.8995V5.73724H17.9006C18.7074 5.73724 19.4134 5.09427 19.4134 4.25347V2.86861C19.4134 2.07727 18.7579 1.38484 17.9006 1.38484Z" fill="white"/>
<path d="M93.739 14.9366C93.739 13.8485 93.5877 12.7604 93.3356 11.7712C92.7809 9.74342 91.0665 8.06182 88.9486 7.66614C87.7385 7.41885 86.5283 7.31993 85.2677 7.31993C84.0071 7.31993 82.7465 7.46831 81.5867 7.66614C79.4689 8.06182 77.7545 9.74342 77.1998 11.7712C76.8972 12.8099 76.7964 13.8485 76.7964 14.9861V22.9984C76.7964 23.7898 77.4519 24.4822 78.3091 24.4822H80.2757C81.0825 24.4822 81.7884 23.8392 81.7884 22.9984V14.9366C81.7884 14.2442 81.8892 13.5518 82.0909 12.9088V12.8593C82.2926 12.2658 82.7465 11.7712 83.3515 11.5734H83.402C84.0071 11.3756 84.6122 11.2767 85.3181 11.2767C86.024 11.2767 86.6291 11.3756 87.2342 11.5734H87.2846C87.8897 11.7712 88.3436 12.2658 88.5453 12.8593V12.9088C88.747 13.5518 88.8478 14.1947 88.8478 14.9366V22.949C88.8478 23.7403 89.5033 24.4328 90.3605 24.4328H92.3271C93.1339 24.4328 93.8398 23.7898 93.8398 22.949L93.739 14.9366Z" fill="white"/>
<path d="M110.94 24.0847C109.22 24.0847 107.941 23.7072 107.191 22.9522C106.397 22.1971 106 20.9702 106 19.2242V6.86052C106 5.11451 106.397 3.84039 107.191 3.13255C107.985 2.37752 109.22 2 110.94 2H112.528C114.337 2 115.836 2.18876 117.115 2.51908C118.394 2.8966 119.453 3.46288 120.379 4.31229C121.306 5.1617 121.967 6.29425 122.408 7.70993C122.849 9.12562 123.07 10.9188 123.07 12.9952C123.07 15.0715 122.849 16.8175 122.408 18.2804C121.967 19.6961 121.306 20.8286 120.379 21.678C119.453 22.5274 118.394 23.1409 117.115 23.4712C115.836 23.8016 114.337 24.0375 112.528 24.0375H110.94V24.0847ZM111.778 20.0264H113.454C114.16 20.0264 114.778 19.9792 115.307 19.8376C115.836 19.6961 116.321 19.4601 116.718 19.1298C117.159 18.7995 117.468 18.3748 117.733 17.8557C117.998 17.3366 118.174 16.6759 118.35 15.8737C118.483 15.0715 118.571 14.1277 118.571 13.0424C118.571 11.957 118.483 11.0132 118.35 10.211C118.218 9.40876 117.998 8.7481 117.733 8.18183C117.468 7.66275 117.115 7.23804 116.718 6.90771C116.277 6.57739 115.836 6.34144 115.263 6.19987C114.733 6.0583 114.116 6.01111 113.41 6.01111H111.734C111.249 6.01111 110.896 6.15268 110.72 6.43582C110.543 6.71895 110.455 7.09647 110.455 7.66274V18.4691C110.455 18.9882 110.543 19.4129 110.72 19.6961C110.896 19.9792 111.249 20.0264 111.778 20.0264Z" fill="white"/>
<path d="M132.927 7.28113C133.406 7.28113 133.797 7.37553 134.058 7.65874C134.319 7.94194 134.45 8.31955 134.45 8.83876V9.82999C134.45 10.8684 133.928 11.3876 132.884 11.3876C131.753 11.3876 130.97 11.482 130.491 11.5764C130.013 11.6708 129.708 11.8124 129.621 12.0012C129.491 12.19 129.447 12.5204 129.447 12.9925V22.5271C129.447 23.0463 129.317 23.4239 129.056 23.6599C128.795 23.9431 128.447 24.0847 128.012 24.0847H126.446C125.967 24.0847 125.619 23.9431 125.358 23.6599C125.097 23.3767 124.967 22.9991 124.967 22.5271V12.3788C124.967 11.5764 125.054 10.8684 125.184 10.3492C125.315 9.82999 125.532 9.35798 125.88 8.93317C126.185 8.50836 126.663 8.22515 127.272 7.98914C127.881 7.75314 128.621 7.61154 129.534 7.46993C130.448 7.32833 131.579 7.32833 132.927 7.28113Z" fill="white"/>
<path d="M148.964 22.2478C147.591 23.7925 145.598 24.5648 142.985 24.5648C140.372 24.5648 138.379 23.7925 137.006 22.2478C135.633 20.7031 134.924 18.5309 134.924 15.6829C134.924 12.8349 135.633 10.6627 137.006 9.11804C138.379 7.57336 140.372 6.80103 142.985 6.80103C145.598 6.80103 147.591 7.57336 148.964 9.11804C150.337 10.6627 151.046 12.8349 151.046 15.6829C151.046 18.5309 150.381 20.7031 148.964 22.2478ZM140.283 19.3515C140.859 20.1239 141.745 20.51 142.985 20.51C144.225 20.51 145.111 20.1239 145.687 19.3515C146.262 18.5792 146.572 17.3724 146.572 15.7312C146.572 14.09 146.262 12.8349 145.687 12.1109C145.111 11.3868 144.181 10.9523 142.985 10.9523C141.789 10.9523 140.859 11.3385 140.283 12.1109C139.707 12.8832 139.397 14.09 139.397 15.7312C139.442 17.3724 139.707 18.5792 140.283 19.3515Z" fill="white"/>
<path d="M159.636 7.28113C161.099 7.28113 162.34 7.42373 163.404 7.70894C164.468 7.99415 165.399 8.51703 166.196 9.18252C166.994 9.84801 167.571 10.7512 167.97 11.892C168.368 13.0328 168.59 14.4114 168.59 15.98C168.59 17.5962 168.368 18.9747 167.97 20.068C167.571 21.2088 166.994 22.112 166.196 22.7775C165.399 23.443 164.468 23.9183 163.404 24.2511C162.34 24.5838 161.099 24.6789 159.636 24.6789C158.927 24.6789 158.173 24.6314 157.42 24.5838V29.6701C157.42 30.1929 157.287 30.5732 157.021 30.8584C156.755 31.1436 156.4 31.2862 155.957 31.2862H154.45C153.962 31.2862 153.608 31.1436 153.342 30.8584C153.076 30.5732 152.943 30.1929 152.943 29.6701V12.6526C152.943 10.7512 153.475 9.37266 154.538 8.51703C155.602 7.70894 157.287 7.28113 159.636 7.28113ZM159.902 20.7335C161.409 20.7335 162.473 20.4008 163.138 19.6877C163.803 18.9747 164.113 17.7863 164.113 16.0275C164.113 14.2688 163.803 13.0804 163.138 12.3674C162.473 11.6543 161.409 11.3216 159.946 11.3216C159.193 11.3216 158.661 11.4167 158.262 11.5593C157.863 11.7019 157.686 11.9395 157.553 12.2723C157.42 12.605 157.375 13.0328 157.375 13.6033V20.5434C158.395 20.686 159.237 20.7335 159.902 20.7335Z" fill="white"/>
<path d="M171.016 23.8566C170.165 23.6211 169.762 23.056 169.762 22.1143V21.6434C169.762 21.1254 169.897 20.7016 170.21 20.4661C170.479 20.2307 170.927 20.1365 171.42 20.2307C172.405 20.419 173.346 20.5603 174.241 20.6545C175.137 20.7487 175.899 20.7958 176.66 20.7487C177.422 20.7016 178.004 20.6074 178.407 20.372C178.855 20.1365 179.034 19.8069 179.034 19.336C179.034 18.9593 178.9 18.6767 178.676 18.4413C178.407 18.2058 178.004 18.0175 177.466 17.8762L174.062 16.9815C171.061 16.181 169.538 14.58 169.538 12.1784C169.538 11.0483 169.852 10.0594 170.524 9.30597C171.196 8.55254 172.091 7.98747 173.166 7.70493C174.241 7.37531 175.496 7.28113 176.839 7.28113C178.183 7.28113 179.571 7.51657 181.05 7.89329C181.901 8.08165 182.304 8.69381 182.304 9.63559V10.0594C182.304 10.6245 182.169 11.0012 181.856 11.2366C181.542 11.4721 181.139 11.5192 180.646 11.425C179.527 11.1895 178.497 11.0012 177.466 10.907C176.481 10.8128 175.585 10.907 174.868 11.0954C174.152 11.2837 173.793 11.6133 173.793 12.0842C173.793 12.6493 174.197 13.026 174.958 13.2144L178.586 14.2033C180.154 14.6271 181.363 15.2392 182.125 16.0868C182.886 16.8873 183.289 17.9704 183.289 19.2418C183.289 20.2778 183.065 21.1254 182.572 21.8788C182.08 22.6322 181.453 23.1973 180.646 23.574C179.84 23.9507 178.9 24.2333 177.825 24.4216C176.75 24.5629 175.675 24.61 174.51 24.5158C173.39 24.4216 172.226 24.1862 171.016 23.8566Z" fill="white"/>
</svg>
