<svg width="99" height="25" viewBox="0 0 99 25" fill="none" xmlns="http://www.w3.org/2000/svg">
<path d="M31.2127 13.8485V19.4869C31.2127 23.0479 29.5487 24.3833 25.8173 24.3833H22.2876C18.052 24.3833 15.4299 23.2952 15.4299 19.289C15.4299 15.2828 18.052 14.1453 22.2876 14.1453H26.372V13.8485C26.372 11.9691 25.2627 11.1777 22.7415 11.1777C21.4809 11.1777 20.2707 11.3756 18.6571 11.7218C17.5478 11.9196 16.8922 11.425 16.8922 10.3369V9.69397C16.8922 8.75425 17.4469 8.16074 18.5562 7.91344C20.4724 7.51777 21.9347 7.27048 23.4474 7.27048C28.1369 7.27048 31.2127 9.24884 31.2127 13.8485ZM26.4224 19.2396V17.5085H22.5398C20.4219 17.5085 20.0185 18.0031 20.0185 19.2396C20.0185 20.476 20.4724 20.9706 22.5398 20.9706H24.6576C26.1703 20.9706 26.4224 20.3771 26.4224 19.2396Z" fill="white"/>
<path d="M70.8462 17.5579L63.3834 18.2998C63.9885 20.2287 65.4508 20.8717 67.7703 20.8717C68.8796 20.8717 70.2411 20.7728 71.7538 20.4266C72.8631 20.1793 73.5691 20.6244 73.5691 21.762V22.2566C73.5691 23.1963 73.1153 23.7898 72.2076 24.0371C70.3419 24.5317 68.6779 24.68 67.0643 24.68C61.8202 24.68 58.3914 21.8609 58.3914 15.9753C58.3914 10.4358 61.2655 7.22101 67.1148 7.22101C72.0059 7.22101 74.7793 9.49612 74.7793 13.7496C74.7288 16.2226 73.9725 17.2117 70.8462 17.5579ZM70.1402 13.3539C70.1402 11.7218 69.283 10.881 67.0139 10.881C64.5935 10.881 63.3329 11.9691 63.0808 14.8377L68.93 14.2442C69.9385 14.1453 70.1402 13.9474 70.1402 13.3539Z" fill="white"/>
<path d="M98.1762 3.11592C98.1762 4.84699 96.7643 6.23184 94.9995 6.23184C93.2346 6.23184 91.8228 4.84699 91.8228 3.11592C91.8228 1.38485 93.2346 0 94.9995 0C96.7643 0 98.1762 1.38485 98.1762 3.11592Z" fill="white"/>
<path d="M37.5662 1.38484H35.5996C34.7929 1.38484 34.0869 2.02781 34.0869 2.86861V22.8995C34.0869 23.6909 34.7424 24.3833 35.5996 24.3833H37.5662C38.373 24.3833 39.0789 23.7403 39.0789 22.8995V2.86861C39.0789 2.07727 38.373 1.38484 37.5662 1.38484Z" fill="white"/>
<path d="M58.1898 22.5533L58.0889 22.4544L51.685 15.3817L57.9881 9.29829L58.0385 9.24883C58.7444 8.50694 58.4419 7.76506 57.383 7.61668C57.2317 7.56722 57.0804 7.56722 56.8787 7.56722H56.8283H55.1139C54.3575 7.56722 53.6012 7.86398 53.1473 8.30911L46.8443 14.442V2.86861C46.8443 2.07727 46.1888 1.38484 45.3316 1.38484H43.365C42.5582 1.38484 41.8523 2.02781 41.8523 2.86861V22.8995C41.8523 23.6909 42.5078 24.3833 43.365 24.3833H45.3316C46.1384 24.3833 46.8443 23.7403 46.8443 22.8995V16.5193L53.1978 23.5425L53.2482 23.5919C53.702 24.136 54.5592 24.4328 55.4164 24.3833H55.3156H57.03H56.8787C57.0804 24.3833 57.3326 24.3833 57.5343 24.3338C58.5932 24.136 58.8957 23.3447 58.1898 22.5533Z" fill="white"/>
<path d="M17.9006 1.38484H1.51273C0.705941 1.38484 0 2.02781 0 2.86861V4.25347C0 5.04481 0.655516 5.73724 1.51273 5.73724H7.21068V22.8995C7.21068 23.6909 7.8662 24.3833 8.72341 24.3833H10.69C11.4967 24.3833 12.2027 23.7403 12.2027 22.8995V5.73724H17.9006C18.7074 5.73724 19.4134 5.09427 19.4134 4.25347V2.86861C19.4134 2.07727 18.7579 1.38484 17.9006 1.38484Z" fill="white"/>
<path d="M93.739 14.9366C93.739 13.8485 93.5877 12.7604 93.3356 11.7712C92.7809 9.74342 91.0665 8.06182 88.9486 7.66614C87.7385 7.41885 86.5283 7.31993 85.2677 7.31993C84.0071 7.31993 82.7465 7.46831 81.5867 7.66614C79.4689 8.06182 77.7545 9.74342 77.1998 11.7712C76.8972 12.8099 76.7964 13.8485 76.7964 14.9861V22.9984C76.7964 23.7898 77.4519 24.4822 78.3091 24.4822H80.2757C81.0825 24.4822 81.7884 23.8392 81.7884 22.9984V14.9366C81.7884 14.2442 81.8892 13.5518 82.0909 12.9088V12.8593C82.2926 12.2658 82.7465 11.7712 83.3515 11.5734H83.402C84.0071 11.3756 84.6122 11.2767 85.3181 11.2767C86.024 11.2767 86.6291 11.3756 87.2342 11.5734H87.2846C87.8897 11.7712 88.3436 12.2658 88.5453 12.8593V12.9088C88.747 13.5518 88.8478 14.1947 88.8478 14.9366V22.949C88.8478 23.7403 89.5033 24.4328 90.3605 24.4328H92.3271C93.1339 24.4328 93.8398 23.7898 93.8398 22.949L93.739 14.9366Z" fill="white"/>
</svg>
