<svg width="181" height="32" viewBox="0 0 181 32" fill="none" xmlns="http://www.w3.org/2000/svg">
<path d="M31.2127 13.8485V19.4869C31.2127 23.0479 29.5487 24.3833 25.8173 24.3833H22.2876C18.052 24.3833 15.4299 23.2952 15.4299 19.289C15.4299 15.2828 18.052 14.1453 22.2876 14.1453H26.372V13.8485C26.372 11.9691 25.2627 11.1777 22.7415 11.1777C21.4809 11.1777 20.2707 11.3756 18.6571 11.7218C17.5478 11.9196 16.8922 11.425 16.8922 10.3369V9.69397C16.8922 8.75425 17.4469 8.16074 18.5562 7.91344C20.4724 7.51777 21.9347 7.27048 23.4474 7.27048C28.1369 7.27048 31.2127 9.24884 31.2127 13.8485ZM26.4224 19.2396V17.5085H22.5398C20.4219 17.5085 20.0185 18.0031 20.0185 19.2396C20.0185 20.476 20.4724 20.9706 22.5398 20.9706H24.6576C26.1703 20.9706 26.4224 20.3771 26.4224 19.2396Z" fill="white"/>
<path d="M70.8462 17.5579L63.3834 18.2998C63.9885 20.2287 65.4508 20.8717 67.7703 20.8717C68.8796 20.8717 70.2411 20.7728 71.7538 20.4266C72.8631 20.1793 73.5691 20.6244 73.5691 21.762V22.2566C73.5691 23.1963 73.1153 23.7898 72.2076 24.0371C70.3419 24.5317 68.6779 24.68 67.0643 24.68C61.8202 24.68 58.3914 21.8609 58.3914 15.9753C58.3914 10.4358 61.2655 7.22101 67.1148 7.22101C72.0059 7.22101 74.7793 9.49612 74.7793 13.7496C74.7288 16.2226 73.9725 17.2117 70.8462 17.5579ZM70.1402 13.3539C70.1402 11.7218 69.283 10.881 67.0139 10.881C64.5935 10.881 63.3329 11.9691 63.0808 14.8377L68.93 14.2442C69.9385 14.1453 70.1402 13.9474 70.1402 13.3539Z" fill="white"/>
<path d="M98.1762 3.11592C98.1762 4.84699 96.7643 6.23184 94.9995 6.23184C93.2346 6.23184 91.8228 4.84699 91.8228 3.11592C91.8228 1.38485 93.2346 0 94.9995 0C96.7643 0 98.1762 1.38485 98.1762 3.11592Z" fill="white"/>
<path d="M37.5662 1.38484H35.5996C34.7929 1.38484 34.0869 2.02781 34.0869 2.86861V22.8995C34.0869 23.6909 34.7424 24.3833 35.5996 24.3833H37.5662C38.373 24.3833 39.0789 23.7403 39.0789 22.8995V2.86861C39.0789 2.07727 38.373 1.38484 37.5662 1.38484Z" fill="white"/>
<path d="M58.1898 22.5533L58.0889 22.4544L51.685 15.3817L57.9881 9.29829L58.0385 9.24883C58.7444 8.50694 58.4419 7.76506 57.383 7.61668C57.2317 7.56722 57.0804 7.56722 56.8787 7.56722H56.8283H55.1139C54.3575 7.56722 53.6012 7.86398 53.1473 8.30911L46.8443 14.442V2.86861C46.8443 2.07727 46.1888 1.38484 45.3316 1.38484H43.365C42.5582 1.38484 41.8523 2.02781 41.8523 2.86861V22.8995C41.8523 23.6909 42.5078 24.3833 43.365 24.3833H45.3316C46.1384 24.3833 46.8443 23.7403 46.8443 22.8995V16.5193L53.1978 23.5425L53.2482 23.5919C53.702 24.136 54.5592 24.4328 55.4164 24.3833H55.3156H57.03H56.8787C57.0804 24.3833 57.3326 24.3833 57.5343 24.3338C58.5932 24.136 58.8957 23.3447 58.1898 22.5533Z" fill="white"/>
<path d="M17.9006 1.38484H1.51273C0.705941 1.38484 0 2.02781 0 2.86861V4.25347C0 5.04481 0.655516 5.73724 1.51273 5.73724H7.21068V22.8995C7.21068 23.6909 7.8662 24.3833 8.72341 24.3833H10.69C11.4967 24.3833 12.2027 23.7403 12.2027 22.8995V5.73724H17.9006C18.7074 5.73724 19.4134 5.09427 19.4134 4.25347V2.86861C19.4134 2.07727 18.7579 1.38484 17.9006 1.38484Z" fill="white"/>
<path d="M93.739 14.9366C93.739 13.8485 93.5877 12.7604 93.3356 11.7712C92.7809 9.74342 91.0665 8.06182 88.9486 7.66614C87.7385 7.41885 86.5283 7.31993 85.2677 7.31993C84.0071 7.31993 82.7465 7.46831 81.5867 7.66614C79.4689 8.06182 77.7545 9.74342 77.1998 11.7712C76.8972 12.8099 76.7964 13.8485 76.7964 14.9861V22.9984C76.7964 23.7898 77.4519 24.4822 78.3091 24.4822H80.2757C81.0825 24.4822 81.7884 23.8392 81.7884 22.9984V14.9366C81.7884 14.2442 81.8892 13.5518 82.0909 12.9088V12.8593C82.2926 12.2658 82.7465 11.7712 83.3515 11.5734H83.402C84.0071 11.3756 84.6122 11.2767 85.3181 11.2767C86.024 11.2767 86.6291 11.3756 87.2342 11.5734H87.2846C87.8897 11.7712 88.3436 12.2658 88.5453 12.8593V12.9088C88.747 13.5518 88.8478 14.1947 88.8478 14.9366V22.949C88.8478 23.7403 89.5033 24.4328 90.3605 24.4328H92.3271C93.1339 24.4328 93.8398 23.7898 93.8398 22.949L93.739 14.9366Z" fill="white"/>
<path d="M106.94 24.0847C105.22 24.0847 103.941 23.7072 103.191 22.9522C102.397 22.1971 102 20.9702 102 19.2242V6.86052C102 5.11451 102.397 3.84039 103.191 3.13255C103.985 2.37752 105.22 2 106.94 2H108.528C110.337 2 111.836 2.18876 113.115 2.51908C114.394 2.8966 115.453 3.46288 116.379 4.31229C117.306 5.1617 117.967 6.29425 118.408 7.70993C118.849 9.12562 119.07 10.9188 119.07 12.9952C119.07 15.0715 118.849 16.8175 118.408 18.2804C117.967 19.6961 117.306 20.8286 116.379 21.678C115.453 22.5274 114.394 23.1409 113.115 23.4712C111.836 23.8016 110.337 24.0375 108.528 24.0375H106.94V24.0847ZM107.778 20.0264H109.454C110.16 20.0264 110.778 19.9792 111.307 19.8376C111.836 19.6961 112.321 19.4601 112.718 19.1298C113.159 18.7995 113.468 18.3748 113.733 17.8557C113.998 17.3366 114.174 16.6759 114.35 15.8737C114.483 15.0715 114.571 14.1277 114.571 13.0424C114.571 11.957 114.483 11.0132 114.35 10.211C114.218 9.40876 113.998 8.7481 113.733 8.18183C113.468 7.66275 113.115 7.23804 112.718 6.90771C112.277 6.57739 111.836 6.34144 111.263 6.19987C110.733 6.0583 110.116 6.01111 109.41 6.01111H107.734C107.249 6.01111 106.896 6.15268 106.72 6.43582C106.543 6.71895 106.455 7.09647 106.455 7.66274V18.4691C106.455 18.9882 106.543 19.4129 106.72 19.6961C106.896 19.9792 107.249 20.0264 107.778 20.0264Z" fill="white"/>
<path d="M128.927 7.28113C129.406 7.28113 129.797 7.37553 130.058 7.65874C130.319 7.94194 130.45 8.31955 130.45 8.83876V9.82999C130.45 10.8684 129.928 11.3876 128.884 11.3876C127.753 11.3876 126.97 11.482 126.491 11.5764C126.013 11.6708 125.708 11.8124 125.621 12.0012C125.491 12.19 125.447 12.5204 125.447 12.9925V22.5271C125.447 23.0463 125.317 23.4239 125.056 23.6599C124.795 23.9431 124.447 24.0847 124.012 24.0847H122.446C121.967 24.0847 121.619 23.9431 121.358 23.6599C121.097 23.3767 120.967 22.9991 120.967 22.5271V12.3788C120.967 11.5764 121.054 10.8684 121.184 10.3492C121.315 9.82999 121.532 9.35798 121.88 8.93317C122.185 8.50836 122.663 8.22515 123.272 7.98914C123.881 7.75314 124.621 7.61154 125.534 7.46993C126.448 7.32833 127.579 7.32833 128.927 7.28113Z" fill="white"/>
<path d="M144.964 22.2478C143.591 23.7925 141.598 24.5648 138.985 24.5648C136.372 24.5648 134.379 23.7925 133.006 22.2478C131.633 20.7031 130.924 18.5309 130.924 15.6829C130.924 12.8349 131.633 10.6627 133.006 9.11804C134.379 7.57336 136.372 6.80103 138.985 6.80103C141.598 6.80103 143.591 7.57336 144.964 9.11804C146.337 10.6627 147.046 12.8349 147.046 15.6829C147.046 18.5309 146.381 20.7031 144.964 22.2478ZM136.283 19.3515C136.859 20.1239 137.745 20.51 138.985 20.51C140.225 20.51 141.111 20.1239 141.687 19.3515C142.262 18.5792 142.572 17.3724 142.572 15.7312C142.572 14.09 142.262 12.8349 141.687 12.1109C141.111 11.3868 140.181 10.9523 138.985 10.9523C137.789 10.9523 136.859 11.3385 136.283 12.1109C135.707 12.8832 135.397 14.09 135.397 15.7312C135.442 17.3724 135.707 18.5792 136.283 19.3515Z" fill="white"/>
<path d="M155.636 7.28113C157.099 7.28113 158.34 7.42373 159.404 7.70894C160.468 7.99415 161.399 8.51703 162.196 9.18252C162.994 9.84801 163.571 10.7512 163.97 11.892C164.368 13.0328 164.59 14.4114 164.59 15.98C164.59 17.5962 164.368 18.9747 163.97 20.068C163.571 21.2088 162.994 22.112 162.196 22.7775C161.399 23.443 160.468 23.9183 159.404 24.2511C158.34 24.5838 157.099 24.6789 155.636 24.6789C154.927 24.6789 154.173 24.6314 153.42 24.5838V29.6701C153.42 30.1929 153.287 30.5732 153.021 30.8584C152.755 31.1436 152.4 31.2862 151.957 31.2862H150.45C149.962 31.2862 149.608 31.1436 149.342 30.8584C149.076 30.5732 148.943 30.1929 148.943 29.6701V12.6526C148.943 10.7512 149.475 9.37266 150.538 8.51703C151.602 7.70894 153.287 7.28113 155.636 7.28113ZM155.902 20.7335C157.409 20.7335 158.473 20.4008 159.138 19.6877C159.803 18.9747 160.113 17.7863 160.113 16.0275C160.113 14.2688 159.803 13.0804 159.138 12.3674C158.473 11.6543 157.409 11.3216 155.946 11.3216C155.193 11.3216 154.661 11.4167 154.262 11.5593C153.863 11.7019 153.686 11.9395 153.553 12.2723C153.42 12.605 153.375 13.0328 153.375 13.6033V20.5434C154.395 20.686 155.237 20.7335 155.902 20.7335Z" fill="white"/>
<path d="M167.016 23.8566C166.165 23.6211 165.762 23.056 165.762 22.1143V21.6434C165.762 21.1254 165.897 20.7016 166.21 20.4661C166.479 20.2307 166.927 20.1365 167.42 20.2307C168.405 20.419 169.346 20.5603 170.241 20.6545C171.137 20.7487 171.899 20.7958 172.66 20.7487C173.422 20.7016 174.004 20.6074 174.407 20.372C174.855 20.1365 175.034 19.8069 175.034 19.336C175.034 18.9593 174.9 18.6767 174.676 18.4413C174.407 18.2058 174.004 18.0175 173.466 17.8762L170.062 16.9815C167.061 16.181 165.538 14.58 165.538 12.1784C165.538 11.0483 165.852 10.0594 166.524 9.30597C167.196 8.55254 168.091 7.98747 169.166 7.70493C170.241 7.37531 171.496 7.28113 172.839 7.28113C174.183 7.28113 175.571 7.51657 177.05 7.89329C177.901 8.08165 178.304 8.69381 178.304 9.63559V10.0594C178.304 10.6245 178.169 11.0012 177.856 11.2366C177.542 11.4721 177.139 11.5192 176.646 11.425C175.527 11.1895 174.497 11.0012 173.466 10.907C172.481 10.8128 171.585 10.907 170.868 11.0954C170.152 11.2837 169.793 11.6133 169.793 12.0842C169.793 12.6493 170.197 13.026 170.958 13.2144L174.586 14.2033C176.154 14.6271 177.363 15.2392 178.125 16.0868C178.886 16.8873 179.289 17.9704 179.289 19.2418C179.289 20.2778 179.065 21.1254 178.572 21.8788C178.08 22.6322 177.453 23.1973 176.646 23.574C175.84 23.9507 174.9 24.2333 173.825 24.4216C172.75 24.5629 171.675 24.61 170.51 24.5158C169.39 24.4216 168.226 24.1862 167.016 23.8566Z" fill="white"/>
</svg>
