<svg width="32" height="32" viewBox="0 0 32 32" fill="none" xmlns="http://www.w3.org/2000/svg">
<g clip-path="url(#clip0_158_326)">
<path d="M31.5 15.9707C31.5158 24.5107 24.5512 31.4939 16.0112 31.4999C12.3228 31.5026 8.93481 30.2168 6.27237 28.068C5.58006 27.5093 5.52831 26.4717 6.15744 25.8426L6.86162 25.1384C7.39969 24.6003 8.25869 24.5414 8.85481 25.0144C10.8164 26.5709 13.2988 27.5 16 27.5C22.3566 27.5 27.5 22.3556 27.5 16C27.5 9.64344 22.3556 4.5 16 4.5C12.9491 4.5 10.1782 5.68556 8.12075 7.62075L11.2929 10.7929C11.9229 11.4229 11.4767 12.5 10.5858 12.5H1.5C0.947687 12.5 0.5 12.0523 0.5 11.5V2.41419C0.5 1.52331 1.57712 1.07712 2.20712 1.70706L5.29287 4.79281C8.07556 2.1335 11.847 0.5 16 0.5C24.5506 0.5 31.4842 7.42375 31.5 15.9707ZM20.193 20.8947L20.8069 20.1053C21.3156 19.4514 21.1977 18.5089 20.5438 18.0004L18 16.0218V9.5C18 8.67156 17.3284 8 16.5 8H15.5C14.6716 8 14 8.67156 14 9.5V17.9782L18.0881 21.1578C18.742 21.6664 19.6844 21.5486 20.193 20.8947Z" fill="#2F8AF5"/>
</g>
<defs>
<clipPath id="clip0_158_326">
<rect width="32" height="32" fill="white"/>
</clipPath>
</defs>
</svg>
