<svg xmlns="http://www.w3.org/2000/svg" width="38" height="38" viewBox="0 0 38 38">
    <path id="Path_84699" data-name="Path 84699" d="M0,0H38V38H0Z" fill="none"></path><path id="Path_84700" data-name="Path 84700" d="M21,3C12.717,3,6,10.164,6,19H1l6.483,6.916.117.249L14.333,19h-5C9.333,12.12,14.55,6.556,21,6.556S32.667,12.12,32.667,19,27.45,31.444,21,31.444a11.226,11.226,0,0,1-8.233-3.662L10.4,30.307A14.473,14.473,0,0,0,21,35c8.283,0,15-7.164,15-16S29.283,3,21,3Zm-1.667,8.889v8.889l7.083,4.48L27.7,22.982l-5.867-3.716V11.889Z" transform="translate(0 0)" fill="#ec62ba"></path>
</svg>