<svg xmlns="http://www.w3.org/2000/svg" width="21.584" height="18.009" viewBox="0 0 21.584 18.009">
    <g id="fVvVfp.tif" transform="translate(0)">
        <g id="Grupo_37556" data-name="Grupo 37556" transform="translate(0 0)">
            <path id="Trazado_46139" data-name="Trazado 46139" d="M-28.416-107.842c-.468.542-.938,1.082-1.4,1.627q-2.98,3.494-5.957,6.991l-3.2,3.753c-.166.195-.168.2-.342,0q-2.2-2.551-4.4-5.1l-4.115-4.769q-1-1.164-2.009-2.329c-.05-.058-.106-.111-.16-.167v-.126c.055-.073.113-.143.164-.218q1.632-2.445,3.258-4.893a.483.483,0,0,1,.459-.252c1.173.01,2.346,0,3.519,0q5.152,0,10.3-.005a.487.487,0,0,1,.46.253c.7,1.063,1.4,2.119,2.112,3.176.433.647.872,1.291,1.309,1.936ZM-39.2-98.678c.026-.063.045-.1.058-.14q1.325-3.975,2.653-7.949c.07-.209-.017-.219-.181-.219q-2.538,0-5.077,0c-.253,0-.257.007-.177.247q1.3,3.885,2.592,7.77A.673.673,0,0,0-39.2-98.678Zm7.6-8.306h-3.465c-.36,0-.361,0-.474.338q-.867,2.6-1.732,5.2l-.584,1.752.034.02Zm-15.213,0,6.178,7.164c-.014-.063-.017-.084-.023-.1q-1.137-3.416-2.272-6.832a.3.3,0,0,0-.341-.234c-1,.007-1.994,0-2.991,0Zm11.213-4.48q-1.2,0-2.4,0c-.053,0-.124-.024-.154.036s.037.1.07.14c.775.97,1.553,1.938,2.324,2.911.112.141.173.131.28,0,.767-.968,1.541-1.93,2.311-2.9.037-.047.113-.093.079-.157s-.115-.03-.175-.03Q-34.421-111.464-35.59-111.463Zm-9.764,0a.448.448,0,0,0,.129.229l2.262,2.83c.156.2.157.2.315,0q1.144-1.432,2.285-2.865c.037-.047.114-.089.083-.157s-.113-.037-.173-.037q-1.485,0-2.97,0Zm8.731,3.519c-.05-.067-.074-.1-.1-.133-.78-.977-1.564-1.952-2.339-2.933-.114-.145-.173-.151-.291,0-.772.975-1.553,1.943-2.329,2.914-.032.041-.087.075-.071.154Zm-9.112.012h1.705c.054,0,.129.024.158-.026.04-.068-.037-.112-.074-.158-.63-.79-1.266-1.576-1.89-2.37-.116-.148-.166-.129-.26.014-.493.751-.994,1.5-1.49,2.245-.044.066-.133.129-.082.222s.16.072.248.072C-46.858-107.93-46.3-107.931-45.735-107.931Zm13.059,0c.583,0,1.166,0,1.748,0,.209,0,.245-.07.133-.24-.516-.779-1.036-1.554-1.55-2.334-.077-.117-.119-.121-.208-.008-.641.809-1.289,1.613-1.933,2.419-.03.037-.074.091-.065.124.019.069.1.039.146.039C-33.828-107.932-33.252-107.933-32.676-107.933Z" transform="translate(50 113.333)" fill="#000"></path>
        </g>
    </g>
</svg>