<svg id="Group_41625" data-name="Group 41625" xmlns="http://www.w3.org/2000/svg" width="26" height="26" viewBox="0 0 28.683 28.683">
    <circle id="Ellipse_2131" data-name="Ellipse 2131" cx="2.151" cy="2.151" r="2.151" transform="translate(17.21 8.605)" fill="#000"></circle>
    <circle id="Ellipse_2132" data-name="Ellipse 2132" cx="2.151" cy="2.151" r="2.151" transform="translate(7.171 8.605)" fill="#000"></circle>
    <path id="Path_87755" data-name="Path 87755" d="M14.171,19.737c3.27,0,6.052-2.381,7.171-5.737H7C8.119,17.356,10.9,19.737,14.171,19.737Z" transform="translate(0.171 3.21)" fill="#000"></path>
    <path id="Path_87756" data-name="Path 87756" d="M16.327,2A14.342,14.342,0,1,0,30.683,16.342,14.335,14.335,0,0,0,16.327,2Zm.014,25.815A11.473,11.473,0,1,1,27.815,16.342,11.47,11.47,0,0,1,16.342,27.815Z" transform="translate(-2 -2)" fill="#000"></path>
</svg>