<svg id="twitter" xmlns="http://www.w3.org/2000/svg" width="18" height="15" viewBox="0 0 18 15">
  <path id="coolicon" d="M15.88,2.365A3.781,3.781,0,0,0,17.5.269a7.28,7.28,0,0,1-2.345.919A3.632,3.632,0,0,0,10.724.449a3.831,3.831,0,0,0-1.861,4.2A10.4,10.4,0,0,1,1.253.686,3.856,3.856,0,0,0,2.4,5.745,3.609,3.609,0,0,1,.724,5.27v.048A3.768,3.768,0,0,0,3.686,9.032,3.61,3.61,0,0,1,2.019,9.1a3.713,3.713,0,0,0,3.45,2.631A7.29,7.29,0,0,1,.882,13.35,7.312,7.312,0,0,1,0,13.3a10.356,10.356,0,0,0,13.112-1.434A10.85,10.85,0,0,0,16.168,4.22q0-.246-.011-.49A7.613,7.613,0,0,0,18,1.768,7.237,7.237,0,0,1,15.88,2.365Z" fill="#487bed"/>
</svg>
